<svg width="2000" height="1311" viewBox="0 0 2000 1311" fill="none" xmlns="http://www.w3.org/2000/svg">
<path d="M1293.71 1029.7C1290.84 1029.7 1287.97 1029.05 1285.4 1027.76L1157.43 963.183L1158.52 961.528L1286.5 1026.11C1290.97 1028.36 1296.51 1028.35 1300.96 1026.08L1338.32 1007.08L1547.58 901.487C1548.55 901.001 1549.13 900.127 1549.13 899.151C1549.13 898.172 1548.55 897.298 1547.58 896.808L1330.55 787.293L1331.64 785.639L1548.68 895.154C1550.33 895.987 1551.32 897.484 1551.32 899.151C1551.32 900.817 1550.33 902.312 1548.68 903.142L1339.42 1008.74L1302.06 1027.74C1299.49 1029.04 1296.6 1029.7 1293.71 1029.7Z" fill="#8686F2"/>
<path d="M475.667 757.956L474.573 756.301L626.163 679.809C631.493 677.123 638.11 677.123 643.44 679.809L714.307 715.57L713.213 717.225L642.347 681.467C637.697 679.116 631.91 679.116 627.26 681.467L475.667 757.956Z" fill="#8686F2"/>
<path d="M1546.53 757.956L1394.94 681.464C1390.29 679.113 1384.5 679.113 1379.85 681.464L1308.98 717.222L1307.89 715.567L1378.76 679.806C1384.09 677.12 1390.7 677.12 1396.03 679.806L1547.62 756.298L1546.53 757.956Z" fill="#8686F2"/>
<path opacity="0.6" d="M1498.94 655.357L1399.17 605.012L1265.6 672.415L1365.37 722.757L1498.94 655.357Z" fill="url(#paint0_linear_15_907)"/>
<path opacity="0.6" d="M1132.03 605.012L1032.26 655.354L1165.84 722.757L1265.6 672.415L1132.03 605.012Z" fill="url(#paint1_linear_15_907)"/>
<path opacity="0.6" d="M1032.26 790.157L1132.03 840.5L1265.61 773.1L1165.84 722.757L1032.26 790.157Z" fill="url(#paint2_linear_15_907)"/>
<path opacity="0.6" d="M1399.18 840.503L1498.95 790.16L1365.37 722.757L1265.61 773.1L1399.18 840.503Z" fill="url(#paint3_linear_15_907)"/>
<path opacity="0.6" d="M984.803 655.357L885.033 605.012L751.463 672.415L851.233 722.757L984.803 655.357Z" fill="url(#paint4_linear_15_907)"/>
<path opacity="0.6" d="M617.887 605.012L518.12 655.354L651.697 722.757L751.463 672.415L617.887 605.012Z" fill="url(#paint5_linear_15_907)"/>
<path opacity="0.6" d="M518.127 790.157L617.893 840.5L751.467 773.1L651.697 722.757L518.127 790.157Z" fill="url(#paint6_linear_15_907)"/>
<path opacity="0.6" d="M885.043 840.503L984.807 790.16L851.233 722.757L751.467 773.1L885.043 840.503Z" fill="url(#paint7_linear_15_907)"/>
<path d="M752.16 818.472C750.167 818.472 748.253 818.111 746.797 817.374L626.18 756.511C624.623 755.725 623.763 754.597 623.767 753.336C623.767 751.879 624.94 750.451 626.987 749.423L745.987 689.373C749.63 687.538 754.98 687.357 758.167 688.968L878.783 749.831C880.34 750.617 881.2 751.745 881.197 753.006C881.197 754.463 880.023 755.891 877.977 756.919L758.977 816.969C757 817.965 754.523 818.472 752.16 818.472ZM747.727 815.961C750.307 817.263 755.03 817.076 758.04 815.556L877.04 755.506C878.47 754.784 879.323 753.848 879.323 753.003C879.327 752.167 878.52 751.585 877.847 751.244L757.23 690.381C754.653 689.085 749.93 689.271 746.917 690.786L627.917 750.836C626.487 751.558 625.633 752.491 625.633 753.339C625.63 754.175 626.437 754.757 627.11 755.098L747.727 815.961Z" fill="#8686F2"/>
<path d="M880.26 708.63V721.569L752.17 786.204L624.077 721.566V708.63H880.26Z" fill="url(#paint8_linear_15_907)"/>
<path d="M752.17 773.266L624.077 708.631L752.167 643.995L880.26 708.631L752.17 773.266Z" fill="#BCBEFF"/>
<path d="M752.17 771.754L625.573 707.873L624.077 708.63L752.17 773.266L880.26 708.63L878.763 707.876L752.17 771.754Z" fill="white"/>
<path d="M752.17 758.358L653.647 708.645L752.167 658.932L850.687 708.645L752.17 758.358Z" fill="#0F054C"/>
<path opacity="0.5" d="M752.17 758.361L653.647 708.645L752.167 658.932L850.69 708.645L752.17 758.361Z" fill="url(#paint9_linear_15_907)"/>
<path opacity="0.5" d="M752.167 646.393L850.69 696.109V708.645L752.167 658.929V646.393Z" fill="url(#paint10_linear_15_907)"/>
<path opacity="0.5" d="M752.17 658.929L653.647 708.645V696.109L752.167 646.393L752.17 658.929Z" fill="url(#paint11_linear_15_907)"/>
<path opacity="0.5" d="M752.17 745.825L653.647 696.109L752.167 646.393L850.69 696.109L752.17 745.825Z" fill="url(#paint12_linear_15_907)"/>
<path opacity="0.5" d="M752.167 715.975L712.8 696.109L752.167 676.243L791.533 696.109L752.167 715.975Z" fill="#42E8E0"/>
<path opacity="0.5" d="M752.167 678.073L789.723 697.024L791.533 696.109L752.167 676.243L712.8 696.109L714.61 697.024L752.167 678.073Z" fill="#42E8E0"/>
<path opacity="0.5" d="M752.17 745.825V758.358L850.69 708.645V696.109L752.17 745.825Z" fill="url(#paint13_linear_15_907)"/>
<path opacity="0.5" d="M653.647 696.109V708.645L752.17 758.358V745.825L653.647 696.109Z" fill="url(#paint14_linear_15_907)"/>
<path opacity="0.8" d="M752.17 744.456L655.003 695.424L653.647 696.109L752.17 745.825L850.69 696.109L849.333 695.424L752.17 744.456Z" fill="#42E8E0"/>
<path d="M1265.6 818.472C1263.6 818.472 1261.69 818.111 1260.23 817.374L1139.62 756.511C1138.06 755.725 1137.2 754.597 1137.2 753.336C1137.2 751.879 1138.38 750.451 1140.42 749.423L1259.42 689.373C1263.07 687.538 1268.42 687.357 1271.6 688.968L1392.22 749.831C1393.78 750.617 1394.64 751.745 1394.63 753.006C1394.63 754.463 1393.46 755.891 1391.41 756.919L1272.41 816.969C1270.44 817.965 1267.96 818.472 1265.6 818.472ZM1261.17 815.961C1263.75 817.263 1268.47 817.076 1271.48 815.556L1390.48 755.506C1391.91 754.784 1392.76 753.848 1392.76 753.003C1392.77 752.167 1391.96 751.585 1391.29 751.244L1270.67 690.381C1268.09 689.085 1263.37 689.271 1260.35 690.786L1141.35 750.836C1139.92 751.558 1139.07 752.491 1139.07 753.339C1139.07 754.175 1139.87 754.757 1140.55 755.098L1261.17 815.961Z" fill="#8686F2"/>
<path d="M1393.7 708.63V721.569L1265.61 786.204L1137.51 721.566V708.63H1393.7Z" fill="url(#paint15_linear_15_907)"/>
<path d="M1265.61 773.266L1137.51 708.631L1265.6 643.995L1393.7 708.631L1265.61 773.266Z" fill="#BCBEFF"/>
<path d="M1265.61 771.754L1139.01 707.873L1137.51 708.63L1265.61 773.266L1393.7 708.63L1392.2 707.876L1265.61 771.754Z" fill="white"/>
<path d="M1265.61 758.358L1167.09 708.645L1265.6 658.932L1364.13 708.645L1265.61 758.358Z" fill="#0F054C"/>
<path opacity="0.5" d="M1265.61 758.361L1167.08 708.645L1265.6 658.932L1364.13 708.645L1265.61 758.361Z" fill="url(#paint16_linear_15_907)"/>
<path opacity="0.5" d="M1265.6 646.393L1364.13 696.109V708.645L1265.6 658.929V646.393Z" fill="url(#paint17_linear_15_907)"/>
<path opacity="0.5" d="M1265.61 658.929L1167.08 708.645V696.109L1265.6 646.393L1265.61 658.929Z" fill="url(#paint18_linear_15_907)"/>
<path opacity="0.5" d="M1265.61 745.825L1167.08 696.109L1265.6 646.393L1364.13 696.109L1265.61 745.825Z" fill="url(#paint19_linear_15_907)"/>
<path opacity="0.5" d="M1265.61 715.975L1226.24 696.109L1265.6 676.243L1304.97 696.109L1265.61 715.975Z" fill="#42E8E0"/>
<path opacity="0.5" d="M1265.6 678.073L1303.16 697.024L1304.97 696.109L1265.6 676.243L1226.24 696.109L1228.05 697.024L1265.6 678.073Z" fill="#42E8E0"/>
<path opacity="0.5" d="M1265.61 745.825V758.358L1364.13 708.645V696.109L1265.61 745.825Z" fill="url(#paint20_linear_15_907)"/>
<path opacity="0.5" d="M1167.08 696.109V708.645L1265.61 758.358V745.825L1167.08 696.109Z" fill="url(#paint21_linear_15_907)"/>
<path opacity="0.8" d="M1265.61 744.456L1168.44 695.424L1167.08 696.109L1265.61 745.825L1364.13 696.109L1362.77 695.424L1265.61 744.456Z" fill="#42E8E0"/>
<path d="M1009.2 561.918L781.547 447.042L1009.19 332.172L1236.85 447.048L1009.2 561.918Z" fill="#BCBEFF"/>
<path opacity="0.7" d="M1009.2 551.573L802.05 447.045L1009.19 342.518L1216.35 447.048L1009.2 551.573Z" fill="#453C9E"/>
<path d="M1009.2 1035.6C1005.69 1035.6 1002.18 1034.8 999.05 1033.23L720.21 892.52C718.337 891.576 717.22 889.884 717.22 887.99C717.22 886.102 718.337 884.406 720.21 883.462L1009.19 737.639L1307.16 887.993L1019.35 1033.22C1016.22 1034.8 1012.71 1035.6 1009.2 1035.6ZM1000.14 1031.57C1005.73 1034.39 1012.67 1034.38 1018.26 1031.57L1302.78 887.999L1009.19 739.85L721.3 885.12C720.11 885.72 719.403 886.792 719.403 887.99C719.403 889.19 720.113 890.262 721.3 890.862L1000.14 1031.57Z" fill="#8686F2"/>
<path d="M1009.2 1002.87L781.547 887.993L1009.19 773.123L1236.85 887.999L1009.2 1002.87Z" fill="white"/>
<path d="M1236.85 447.048V887.999L1009.2 1002.87V561.918L1236.85 447.048Z" fill="url(#paint22_linear_15_907)"/>
<path d="M781.547 447.042V887.993L1009.2 1002.87V561.918L781.547 447.042Z" fill="#24126A"/>
<g opacity="0.51">
<path d="M796.967 476.301V872.639L993.78 971.952V575.611L796.967 476.301Z" fill="#453C9E"/>
</g>
<path d="M1202.7 553.586V565.239L1043.35 645.65V633.994L1202.7 553.586Z" fill="#453C9E"/>
<path d="M1202.7 602.865V614.518L1043.35 694.929V683.276L1202.7 602.865Z" fill="#453C9E"/>
<path d="M1202.7 652.144V663.8L1043.35 744.208V732.555L1202.7 652.144Z" fill="#453C9E"/>
<path d="M1202.7 701.423V713.079L1043.35 793.49V781.834L1202.7 701.423Z" fill="#453C9E"/>
<path d="M1202.7 750.705V762.358L1043.35 842.769V831.113L1202.7 750.705Z" fill="#453C9E"/>
<path d="M1202.7 799.984V811.64L1043.35 892.048V880.395L1202.7 799.984Z" fill="#453C9E"/>
<path d="M1009.2 558.186L785.247 445.178L781.547 447.042L1009.2 561.918L1236.85 447.048L1233.15 445.181L1009.2 558.186Z" fill="white"/>
<g opacity="0.51">
<path d="M781.547 818.309L1009.2 698.177L1009.2 561.918L781.547 447.042V818.309Z" fill="#453C9E"/>
</g>
<path d="M820.537 616.662L848.867 630.961L848.87 626.664L820.54 612.368L820.537 616.662Z" fill="#42E8E0"/>
<path d="M853.42 633.245L868.857 641.035L868.863 636.738L853.423 628.948L853.42 633.245Z" fill="#42E8E0"/>
<path d="M892.873 653.14L904.04 658.775L904.047 654.48L892.877 648.843L892.873 653.14Z" fill="#42E8E0"/>
<path d="M884.727 649.03L888.543 650.955L888.55 646.658L884.733 644.732L884.727 649.03Z" fill="#42E8E0"/>
<path d="M873.467 643.346L880.4 646.845L880.403 642.547L873.473 639.051L873.467 643.346Z" fill="#42E8E0"/>
<path d="M846.727 649.525L857.897 655.159L857.9 650.865L846.73 645.228L846.727 649.525Z" fill="#42E8E0"/>
<path d="M820.513 636.295L842.397 647.34L842.403 643.043L820.52 631.998L820.513 636.295Z" fill="#42E8E0"/>
<path d="M861.313 705.927L883.197 716.971L883.2 712.674L861.317 701.63L861.313 705.927Z" fill="#42E8E0"/>
<path d="M850.053 700.246L856.983 703.742L856.99 699.448L850.057 695.949L850.053 700.246Z" fill="#42E8E0"/>
<path d="M861.197 686.271L883.083 697.315L883.087 693.018L861.203 681.973L861.197 686.271Z" fill="#42E8E0"/>
<path d="M849.94 680.587L856.87 684.086L856.877 679.788L849.943 676.292L849.94 680.587Z" fill="#42E8E0"/>
<path d="M861.447 790.757L820.22 769.953L820.217 774.25L861.44 795.055L861.447 790.757Z" fill="#42E8E0"/>
<path d="M875.977 798.09L865.777 792.942L865.77 797.24L875.97 802.387L875.977 798.09Z" fill="#42E8E0"/>
<path d="M942.743 802.256L901.52 781.452L901.513 785.749L942.74 806.553L942.743 802.256Z" fill="#42E8E0"/>
<path d="M957.273 809.589L947.073 804.441L947.07 808.738L957.27 813.886L957.273 809.589Z" fill="#42E8E0"/>
<path d="M831.4 765.775L820.233 760.138L820.227 764.435L831.397 770.073L831.4 765.775Z" fill="#42E8E0"/>
<path d="M895.577 778.498L884.407 772.861L884.403 777.158L895.57 782.795L895.577 778.498Z" fill="#42E8E0"/>
<path d="M857.613 779.005L835.73 767.96L835.723 772.258L857.61 783.302L857.613 779.005Z" fill="#42E8E0"/>
<path d="M868.873 784.686L861.94 781.187L861.937 785.484L868.867 788.983L868.873 784.686Z" fill="#42E8E0"/>
<path d="M895.283 797.994L873.4 786.95L873.393 791.247L895.277 802.288L895.283 797.994Z" fill="#42E8E0"/>
<path d="M906.54 803.675L899.61 800.176L899.607 804.473L906.537 807.972L906.54 803.675Z" fill="#42E8E0"/>
<path d="M895.567 788.319L884.397 782.682L884.393 786.976L895.56 792.613L895.567 788.319Z" fill="#42E8E0"/>
<path d="M921.777 801.545L899.893 790.501L899.89 794.798L921.773 805.843L921.777 801.545Z" fill="#42E8E0"/>
<path d="M933.037 807.226L926.107 803.73L926.1 808.025L933.033 811.524L933.037 807.226Z" fill="#42E8E0"/>
<path d="M843.097 761.857L820.243 750.323L820.24 754.62L843.09 766.154L843.097 761.857Z" fill="#42E8E0"/>
<path d="M863.95 772.383L847.423 764.042L847.42 768.339L863.947 776.677L863.95 772.383Z" fill="#42E8E0"/>
<path d="M879.447 780.202L868.28 774.565L868.273 778.862L879.443 784.499L879.447 780.202Z" fill="#42E8E0"/>
<path d="M955.007 694.288L977.86 705.819L977.863 701.525L955.013 689.991L955.007 694.288Z" fill="#42E8E0"/>
<path d="M934.153 683.762L950.68 692.103L950.683 687.806L934.157 679.465L934.153 683.762Z" fill="#42E8E0"/>
<path d="M918.657 675.943L929.823 681.58L929.83 677.283L918.66 671.646L918.657 675.943Z" fill="#42E8E0"/>
<path d="M945.527 679.646L968.38 691.18L968.383 686.882L945.533 675.351L945.527 679.646Z" fill="#42E8E0"/>
<path d="M924.673 669.123L941.2 677.464L941.203 673.166L924.677 664.826L924.673 669.123Z" fill="#42E8E0"/>
<path d="M909.177 661.3L920.343 666.938L920.35 662.641L909.18 657.003L909.177 661.3Z" fill="#42E8E0"/>
<path d="M864.593 697.81L872.31 701.705L872.317 697.408L864.597 693.513L864.593 697.81Z" fill="#42E8E0"/>
<path d="M850.063 690.48L860.263 695.625L860.27 691.328L850.07 686.183L850.063 690.48Z" fill="#42E8E0"/>
<path d="M843.25 752.1L820.4 740.566L820.393 744.864L843.247 756.397L843.25 752.1Z" fill="#42E8E0"/>
<path d="M864.107 762.623L847.58 754.285L847.577 758.582L864.1 766.92L864.107 762.623Z" fill="#42E8E0"/>
<path d="M879.603 770.446L868.433 764.808L868.43 769.105L879.6 774.743L879.603 770.446Z" fill="#42E8E0"/>
<path d="M828.127 734.647L820.41 730.751L820.407 735.049L828.123 738.944L828.127 734.647Z" fill="#42E8E0"/>
<path d="M842.657 741.979L832.457 736.832L832.453 741.129L842.653 746.277L842.657 741.979Z" fill="#42E8E0"/>
<path d="M863.42 752.459L846.987 744.164L846.98 748.462L863.417 756.756L863.42 752.459Z" fill="#42E8E0"/>
<path d="M869.423 670.748L877.143 674.641L877.147 670.346L869.43 666.451L869.423 670.748Z" fill="#42E8E0"/>
<path d="M854.897 663.416L865.097 668.56L865.1 664.266L854.9 659.118L854.897 663.416Z" fill="#42E8E0"/>
<path d="M834.133 652.936L850.567 661.231L850.573 656.933L834.137 648.639L834.133 652.936Z" fill="#42E8E0"/>
<path d="M882.933 686.678L899.367 694.973L899.373 690.676L882.937 682.381L882.933 686.678Z" fill="#42E8E0"/>
<path d="M856.187 673.883L878.34 685.064L878.343 680.767L856.19 669.589L856.187 673.883Z" fill="#42E8E0"/>
<path d="M844.927 668.202L851.857 671.701L851.863 667.404L844.933 663.905L844.927 668.202Z" fill="#42E8E0"/>
<path d="M834.12 662.748L841.053 666.247L841.057 661.95L834.127 658.451L834.12 662.748Z" fill="#42E8E0"/>
<path d="M845.19 718.209L867.073 729.254L867.077 724.957L845.193 713.912L845.19 718.209Z" fill="#42E8E0"/>
<path d="M833.93 712.528L840.86 716.024L840.867 711.73L833.933 708.231L833.93 712.528Z" fill="#42E8E0"/>
<path d="M848.583 729.749L856.303 733.647L856.307 729.35L848.59 725.455L848.583 729.749Z" fill="#42E8E0"/>
<path d="M872.047 721.883L879.767 725.778L879.77 721.481L872.05 717.586L872.047 721.883Z" fill="#42E8E0"/>
<path d="M883.05 727.43L901.57 736.77L901.573 732.473L883.053 723.133L883.05 727.43Z" fill="#42E8E0"/>
<path d="M904.853 738.419L915.87 743.978L915.873 739.681L904.857 734.125L904.853 738.419Z" fill="#42E8E0"/>
<path d="M834.053 722.419L844.257 727.564L844.26 723.27L834.06 718.122L834.053 722.419Z" fill="#42E8E0"/>
<path d="M834.947 732.502L842.663 736.397L842.667 732.103L834.95 728.205L834.947 732.502Z" fill="#42E8E0"/>
<path d="M820.417 725.169L830.617 730.317L830.62 726.02L820.42 720.875L820.417 725.169Z" fill="#42E8E0"/>
<path d="M860.847 716.237L867.78 719.736L867.783 715.439L860.853 711.943L860.847 716.237Z" fill="#42E8E0"/>
<path d="M850.043 710.783L856.973 714.282L856.98 709.985L850.047 706.486L850.043 710.783Z" fill="#42E8E0"/>
<path d="M889.933 661.449L913.577 673.382L913.58 669.085L889.94 657.155L889.933 661.449Z" fill="#42E8E0"/>
<path d="M863.453 648.086L885.607 659.267L885.61 654.97L863.457 643.788L863.453 648.086Z" fill="#42E8E0"/>
<path d="M852.193 642.405L859.123 645.901L859.13 641.606L852.2 638.107L852.193 642.405Z" fill="#42E8E0"/>
<path d="M841.387 636.951L848.32 640.45L848.323 636.153L841.393 632.654L841.387 636.951Z" fill="#42E8E0"/>
<path d="M835.48 633.97L820.527 626.422L820.53 622.125L835.487 629.673L835.48 633.97Z" fill="#42E8E0"/>
<path d="M1009.2 476.094L781.547 361.221L1009.19 246.349L1236.85 361.224L1009.2 476.094Z" fill="#BCBEFF"/>
<path d="M1009.2 444.729L843.707 361.221L1009.2 277.716L1174.69 361.224L1009.2 444.729Z" fill="#453C9E"/>
<path d="M1009.2 283.371L1169.08 364.05L1174.69 361.224L1009.2 277.716L843.707 361.221L849.313 364.047L1009.2 283.371Z" fill="white"/>
<path d="M1236.85 361.224V426.337L1009.2 541.21V476.094L1236.85 361.224Z" fill="url(#paint23_linear_15_907)"/>
<path d="M781.547 361.221V426.334L1009.2 541.21V476.094L781.547 361.221Z" fill="#24126A"/>
<g opacity="0.51">
<path d="M796.967 390.477V410.981L993.78 510.294V489.787L796.967 390.477Z" fill="#453C9E"/>
</g>
<path d="M1009.2 472.362L785.247 359.354L781.547 361.221L1009.2 476.097L1236.85 361.224L1233.15 359.357L1009.2 472.362Z" fill="white"/>
<path d="M1202.7 406.853V418.509L1043.35 498.917V487.264L1202.7 406.853Z" fill="#453C9E"/>
<path opacity="0.51" d="M781.547 361.221V426.334L1009.2 541.21V476.094L781.547 361.221Z" fill="#453C9E"/>
<path d="M942.743 472.636L901.52 451.832L901.513 456.129L942.74 476.933L942.743 472.636Z" fill="#42E8E0"/>
<path d="M895.577 448.878L884.407 443.24L884.403 447.538L895.57 453.175L895.577 448.878Z" fill="#42E8E0"/>
<path d="M843.25 422.48L820.4 410.949L820.393 415.243L843.247 426.777L843.25 422.48Z" fill="#42E8E0"/>
<path d="M864.107 433.006L847.58 424.665L847.577 428.962L864.1 437.303L864.107 433.006Z" fill="#42E8E0"/>
<path d="M879.603 440.825L868.433 435.188L868.43 439.485L879.6 445.122L879.603 440.825Z" fill="#42E8E0"/>
<path d="M1009.43 306.387L1002.2 302.739L1009.43 299.092L1016.66 302.739L1009.43 306.387Z" fill="#42E8E0"/>
<path opacity="0.1" d="M1023.89 313.684L1016.66 310.037L1023.89 306.389L1031.12 310.037L1023.89 313.684Z" fill="#42E8E0"/>
<path opacity="0.4" d="M1038.35 320.979L1031.12 317.332L1038.35 313.684L1045.58 317.332L1038.35 320.979Z" fill="#42E8E0"/>
<path d="M1052.81 328.274L1045.58 324.627L1052.81 320.979L1060.03 324.627L1052.81 328.274Z" fill="#42E8E0"/>
<path opacity="0.4" d="M1067.26 335.569L1060.03 331.922L1067.26 328.274L1074.49 331.922L1067.26 335.569Z" fill="#42E8E0"/>
<path d="M1081.72 342.864L1074.49 339.217L1081.72 335.569L1088.95 339.217L1081.72 342.864Z" fill="#42E8E0"/>
<path d="M1096.18 350.159L1088.95 346.512L1096.18 342.864L1103.41 346.512L1096.18 350.159Z" fill="#42E8E0"/>
<path d="M1110.64 357.457L1103.41 353.81L1110.64 350.159L1117.87 353.81L1110.64 357.457Z" fill="#42E8E0"/>
<path opacity="0.1" d="M1125.09 364.752L1117.87 361.105L1125.09 357.457L1132.32 361.105L1125.09 364.752Z" fill="#42E8E0"/>
<path d="M994.917 313.714L987.687 310.066L994.917 306.419L1002.14 310.066L994.917 313.714Z" fill="#42E8E0"/>
<path d="M1009.37 321.009L1002.14 317.361L1009.37 313.714L1016.6 317.361L1009.37 321.009Z" fill="#42E8E0"/>
<path d="M1023.83 328.304L1016.6 324.656L1023.83 321.009L1031.06 324.656L1023.83 328.304Z" fill="#42E8E0"/>
<path d="M1038.29 335.599L1031.06 331.951L1038.29 328.304L1045.52 331.951L1038.29 335.599Z" fill="#42E8E0"/>
<path d="M1052.75 342.894L1045.52 339.246L1052.75 335.599L1059.98 339.246L1052.75 342.894Z" fill="#42E8E0"/>
<path d="M1067.2 350.191L1059.98 346.544L1067.2 342.893L1074.43 346.544L1067.2 350.191Z" fill="#42E8E0"/>
<path d="M1081.66 357.486L1074.43 353.839L1081.66 350.191L1088.89 353.839L1081.66 357.486Z" fill="#42E8E0"/>
<path d="M1096.12 364.781L1088.89 361.134L1096.12 357.486L1103.35 361.134L1096.12 364.781Z" fill="#42E8E0"/>
<path d="M1110.58 372.076L1103.35 368.429L1110.58 364.781L1117.81 368.429L1110.58 372.076Z" fill="#42E8E0"/>
<path d="M980.4 321.038L973.17 317.39L980.4 313.743L987.627 317.39L980.4 321.038Z" fill="#42E8E0"/>
<path d="M994.857 328.333L987.63 324.685L994.857 321.038L1002.09 324.685L994.857 328.333Z" fill="#42E8E0"/>
<path d="M1009.31 335.628L1002.09 331.98L1009.31 328.333L1016.54 331.98L1009.31 335.628Z" fill="#42E8E0"/>
<path opacity="0.1" d="M1023.77 342.926L1016.54 339.275L1023.77 335.628L1031 339.275L1023.77 342.926Z" fill="#42E8E0"/>
<path opacity="0.4" d="M1038.23 350.221L1031 346.573L1038.23 342.926L1045.46 346.573L1038.23 350.221Z" fill="#42E8E0"/>
<path opacity="0.4" d="M1052.69 357.516L1045.46 353.868L1052.69 350.221L1059.92 353.868L1052.69 357.516Z" fill="#42E8E0"/>
<path d="M1067.15 364.811L1059.92 361.163L1067.15 357.516L1074.38 361.163L1067.15 364.811Z" fill="#42E8E0"/>
<path d="M1081.6 372.106L1074.38 368.458L1081.6 364.811L1088.83 368.458L1081.6 372.106Z" fill="#42E8E0"/>
<path d="M1096.06 379.401L1088.83 375.753L1096.06 372.106L1103.29 375.753L1096.06 379.401Z" fill="#42E8E0"/>
<path opacity="0.4" d="M965.883 328.362L958.653 324.714L965.883 321.067L973.113 324.714L965.883 328.362Z" fill="#42E8E0"/>
<path opacity="0.4" d="M980.34 335.66L973.113 332.009L980.34 328.362L987.57 332.012L980.34 335.66Z" fill="#42E8E0"/>
<path opacity="0.1" d="M994.8 342.955L987.57 339.307L994.8 335.66L1002.03 339.307L994.8 342.955Z" fill="#42E8E0"/>
<path d="M1009.26 350.25L1002.03 346.602L1009.26 342.955L1016.48 346.602L1009.26 350.25Z" fill="#42E8E0"/>
<path d="M1023.71 357.545L1016.49 353.897L1023.71 350.25L1030.94 353.897L1023.71 357.545Z" fill="#42E8E0"/>
<path d="M1038.17 364.84L1030.94 361.192L1038.17 357.545L1045.4 361.192L1038.17 364.84Z" fill="#42E8E0"/>
<path opacity="0.4" d="M1052.63 372.135L1045.4 368.487L1052.63 364.84L1059.86 368.487L1052.63 372.135Z" fill="#42E8E0"/>
<path d="M1067.09 379.433L1059.86 375.782L1067.09 372.135L1074.32 375.782L1067.09 379.433Z" fill="#42E8E0"/>
<path d="M1081.55 386.728L1074.32 383.08L1081.55 379.433L1088.77 383.08L1081.55 386.728Z" fill="#42E8E0"/>
<path d="M951.367 335.689L944.137 332.041L951.367 328.391L958.597 332.041L951.367 335.689Z" fill="#42E8E0"/>
<path d="M965.823 342.984L958.597 339.336L965.823 335.689L973.053 339.336L965.823 342.984Z" fill="#42E8E0"/>
<path d="M980.283 350.279L973.053 346.631L980.283 342.984L987.51 346.631L980.283 350.279Z" fill="#42E8E0"/>
<path d="M994.74 357.574L987.51 353.926L994.74 350.279L1001.97 353.926L994.74 357.574Z" fill="#42E8E0"/>
<path d="M1009.2 364.869L1001.97 361.221L1009.2 357.574L1016.43 361.221L1009.2 364.869Z" fill="#42E8E0"/>
<path d="M1023.66 372.164L1016.43 368.516L1023.66 364.869L1030.88 368.516L1023.66 372.164Z" fill="#42E8E0"/>
<path d="M1038.11 379.462L1030.88 375.811L1038.11 372.164L1045.34 375.814L1038.11 379.462Z" fill="#42E8E0"/>
<path d="M1052.57 386.757L1045.34 383.109L1052.57 379.462L1059.8 383.109L1052.57 386.757Z" fill="#42E8E0"/>
<path d="M1067.03 394.052L1059.8 390.404L1067.03 386.757L1074.26 390.404L1067.03 394.052Z" fill="#42E8E0"/>
<path d="M936.85 343.013L929.62 339.365L936.85 335.718L944.08 339.365L936.85 343.013Z" fill="#42E8E0"/>
<path d="M951.307 350.308L944.08 346.66L951.307 343.013L958.537 346.66L951.307 350.308Z" fill="#42E8E0"/>
<path opacity="0.4" d="M965.767 357.603L958.537 353.955L965.767 350.308L972.993 353.955L965.767 357.603Z" fill="#42E8E0"/>
<path d="M980.223 364.898L972.993 361.25L980.223 357.603L987.453 361.25L980.223 364.898Z" fill="#42E8E0"/>
<path opacity="0.1" d="M994.683 372.196L987.453 368.548L994.68 364.901L1001.91 368.548L994.683 372.196Z" fill="#42E8E0"/>
<path d="M1009.14 379.491L1001.91 375.843L1009.14 372.196L1016.37 375.843L1009.14 379.491Z" fill="#42E8E0"/>
<path d="M1023.6 386.786L1016.37 383.138L1023.6 379.491L1030.83 383.138L1023.6 386.786Z" fill="#42E8E0"/>
<path d="M1038.06 394.081L1030.83 390.433L1038.05 386.786L1045.28 390.433L1038.06 394.081Z" fill="#42E8E0"/>
<path d="M1052.51 401.376L1045.28 397.728L1052.51 394.081L1059.74 397.728L1052.51 401.376Z" fill="#42E8E0"/>
<path d="M922.333 350.337L915.103 346.69L922.333 343.042L929.563 346.69L922.333 350.337Z" fill="#42E8E0"/>
<path d="M936.793 357.632L929.563 353.985L936.793 350.337L944.02 353.985L936.793 357.632Z" fill="#42E8E0"/>
<path opacity="0.4" d="M951.25 364.93L944.02 361.28L951.25 357.632L958.477 361.28L951.25 364.93Z" fill="#42E8E0"/>
<path d="M965.707 372.225L958.48 368.577L965.707 364.93L972.937 368.577L965.707 372.225Z" fill="#42E8E0"/>
<path d="M980.167 379.52L972.937 375.872L980.163 372.225L987.393 375.872L980.167 379.52Z" fill="#42E8E0"/>
<path opacity="0.1" d="M994.623 386.815L987.393 383.167L994.623 379.52L1001.85 383.167L994.623 386.815Z" fill="#42E8E0"/>
<path opacity="0.4" d="M1009.08 394.11L1001.85 390.462L1009.08 386.815L1016.31 390.462L1009.08 394.11Z" fill="#42E8E0"/>
<path d="M1023.54 401.405L1016.31 397.757L1023.54 394.11L1030.77 397.757L1023.54 401.405Z" fill="#42E8E0"/>
<path opacity="0.1" d="M1038 408.703L1030.77 405.055L1038 401.405L1045.23 405.055L1038 408.703Z" fill="#42E8E0"/>
<path d="M907.817 357.664L900.59 354.017L907.817 350.366L915.047 354.017L907.817 357.664Z" fill="#42E8E0"/>
<path opacity="0.4" d="M922.277 364.959L915.047 361.312L922.277 357.664L929.503 361.312L922.277 364.959Z" fill="#42E8E0"/>
<path d="M936.733 372.254L929.503 368.607L936.733 364.959L943.963 368.607L936.733 372.254Z" fill="#42E8E0"/>
<path d="M951.19 379.549L943.963 375.902L951.19 372.254L958.42 375.902L951.19 379.549Z" fill="#42E8E0"/>
<path d="M965.65 386.844L958.42 383.197L965.65 379.549L972.877 383.197L965.65 386.844Z" fill="#42E8E0"/>
<path d="M980.107 394.139L972.877 390.492L980.107 386.844L987.337 390.492L980.107 394.139Z" fill="#42E8E0"/>
<path d="M994.563 401.434L987.337 397.787L994.563 394.139L1001.79 397.787L994.563 401.434Z" fill="#42E8E0"/>
<path opacity="0.4" d="M1009.02 408.732L1001.79 405.084L1009.02 401.437L1016.25 405.084L1009.02 408.732Z" fill="#42E8E0"/>
<path d="M1023.48 416.027L1016.25 412.379L1023.48 408.732L1030.71 412.379L1023.48 416.027Z" fill="#42E8E0"/>
<path d="M893.3 364.988L886.073 361.341L893.3 357.693L900.53 361.341L893.3 364.988Z" fill="#42E8E0"/>
<path opacity="0.1" d="M907.76 372.283L900.53 368.636L907.76 364.988L914.987 368.636L907.76 372.283Z" fill="#42E8E0"/>
<path d="M922.217 379.578L914.987 375.931L922.217 372.283L929.447 375.931L922.217 379.578Z" fill="#42E8E0"/>
<path d="M936.673 386.873L929.447 383.226L936.673 379.578L943.903 383.226L936.673 386.873Z" fill="#42E8E0"/>
<path d="M951.133 394.168L943.903 390.521L951.133 386.873L958.36 390.521L951.133 394.168Z" fill="#42E8E0"/>
<path d="M965.59 401.466L958.36 397.819L965.59 394.168L972.82 397.819L965.59 401.466Z" fill="#42E8E0"/>
<path opacity="0.4" d="M980.047 408.761L972.82 405.114L980.047 401.466L987.277 405.114L980.047 408.761Z" fill="#42E8E0"/>
<path d="M994.507 416.056L987.277 412.409L994.507 408.761L1001.73 412.409L994.507 416.056Z" fill="#42E8E0"/>
<path d="M1008.96 423.351L1001.74 419.704L1008.96 416.056L1016.19 419.704L1008.96 423.351Z" fill="#42E8E0"/>
<path d="M357.233 902.912C353.75 902.912 350.323 902.114 347.323 900.599L232.86 842.839C231.077 841.936 230.013 840.328 230.013 838.527C230.013 836.73 231.077 835.119 232.86 834.218L440.513 729.435L442.02 730.195L564.893 792.196C566.677 793.1 567.74 794.708 567.74 796.508C567.74 798.306 566.677 799.917 564.893 800.817L367.15 900.599C364.147 902.111 360.717 902.912 357.233 902.912ZM440.513 731.64L233.953 835.87C232.853 836.424 232.2 837.417 232.2 838.524C232.2 839.634 232.857 840.628 233.953 841.181L348.417 898.941C353.753 901.633 360.717 901.633 366.057 898.941L563.8 799.159C564.897 798.606 565.55 797.612 565.55 796.505C565.55 795.395 564.897 794.402 563.8 793.848L440.513 731.64Z" fill="#8686F2"/>
<path d="M440.767 689.303L413.217 546.454L415.433 545.638L412.103 543.972L412.11 543.989C411.463 543.613 410.55 543.637 409.543 544.144L189.373 655.244C187.567 656.156 186.197 658.495 186.513 660.132L214.28 804.118C214.427 804.87 214.85 805.365 215.44 805.583H215.437L218.693 807.229L219.253 804.572L219.067 804.622L437.903 694.195C439.717 693.28 441.087 690.941 440.767 689.303Z" fill="url(#paint24_linear_15_907)"/>
<path d="M190.603 659.147L186.983 657.749C186.577 658.559 186.377 659.413 186.517 660.129L214.283 804.115C214.43 804.867 214.853 805.362 215.443 805.58L218.697 807.224L219.257 804.567L219.07 804.616L230.143 799.028L190.603 659.147Z" fill="url(#paint25_linear_15_907)"/>
<path d="M441.363 695.922L221.193 807.022C219.493 807.879 218.037 807.384 217.74 805.845L189.973 661.86C189.657 660.223 191.023 657.883 192.833 656.971L413.003 545.871C414.703 545.015 416.16 545.51 416.457 547.048L444.223 691.034C444.54 692.671 443.17 695.011 441.363 695.922Z" fill="#24126A"/>
<g opacity="0.51">
<path d="M410.123 555.066L197.897 662.157L224.213 797.761L436.297 690.743L410.123 555.066Z" fill="#453C9E"/>
</g>
<path d="M579.763 764.092L567.747 769.577L447.263 708.782C445.247 707.765 441.727 707.893 439.4 709.067L231.6 813.924C229.61 812.951 220.547 809.14 220.547 809.14L224.943 819.156L224.96 819.145C225.143 819.591 225.533 820.007 226.19 820.336L353.083 884.366C355.1 885.382 358.62 885.257 360.947 884.08L573.59 776.779C574.547 776.296 575.13 775.713 575.373 775.121L575.39 775.13L579.763 764.092Z" fill="url(#paint26_linear_15_907)"/>
<path d="M577.903 765.819L359.973 875.789C357.587 876.992 353.98 877.123 351.913 876.08L221.867 810.457C219.8 809.414 220.06 807.593 222.447 806.39L440.377 696.421C442.763 695.218 446.37 695.086 448.437 696.129L578.483 761.752C580.55 762.792 580.29 764.613 577.903 765.819Z" fill="url(#paint27_linear_15_907)"/>
<path d="M577.903 764.721L359.973 874.69C357.587 875.894 353.98 876.025 351.913 874.982L221.867 809.359C221.19 809.018 220.787 808.59 220.603 808.13C220.277 808.986 220.67 809.851 221.867 810.454L351.913 876.077C353.98 877.12 357.587 876.989 359.973 875.786L577.903 765.816C579.507 765.006 580.127 763.92 579.747 762.979C579.51 763.599 578.907 764.214 577.903 764.721Z" fill="white"/>
<path d="M294.24 851.999V849.91C294.24 849.712 294.377 849.621 294.547 849.706L302.977 853.959C303.147 854.044 303.283 854.274 303.283 854.472V856.561C303.283 856.759 303.147 856.849 302.977 856.765L294.547 852.511C294.377 852.427 294.24 852.197 294.24 851.999Z" fill="#2842A2"/>
<path d="M306.843 858.361V856.272C306.843 856.074 306.98 855.984 307.15 856.068L315.58 860.322C315.75 860.409 315.887 860.636 315.887 860.835V862.923C315.887 863.122 315.75 863.212 315.58 863.127L307.15 858.874C306.983 858.787 306.843 858.556 306.843 858.361Z" fill="#2842A2"/>
<path d="M255.77 804.31L436.87 712.925C438.077 712.316 439.567 712.316 440.773 712.928L505.263 745.537C506.19 746.006 506.19 747.174 505.263 747.64L324.247 838.982C323.04 839.591 321.553 839.591 320.35 838.982L255.773 806.414C254.843 805.947 254.843 804.779 255.77 804.31Z" fill="#ADB1F2"/>
<path d="M255.77 806.417L256.417 806.743L436.87 715.687C438.077 715.078 439.567 715.078 440.773 715.689L504.613 747.972L505.26 747.646C506.187 747.18 506.187 746.009 505.26 745.542L440.77 712.933C439.563 712.322 438.077 712.322 436.867 712.931L255.767 804.316C254.843 804.779 254.843 805.947 255.77 806.417Z" fill="#9198DB"/>
<path d="M445.64 721.187L288.33 800.567L281.333 797.036L438.647 717.656L445.64 721.187Z" fill="#24126A"/>
<path d="M462.79 729.84L315.237 804.296L308.24 800.765L455.793 726.309L462.79 729.84Z" fill="#24126A"/>
<path d="M473.957 735.477L300.23 823.139L293.237 819.608L466.963 731.946L473.957 735.477Z" fill="#24126A"/>
<path d="M485.127 741.111L311.4 828.773L304.403 825.245L478.13 737.58L485.127 741.111Z" fill="#24126A"/>
<path d="M496.297 746.746L322.567 834.411L315.573 830.88L489.3 743.218L496.297 746.746Z" fill="#24126A"/>
<path d="M278.823 805.362L271.83 808.893L264.833 805.362L271.83 801.834L278.823 805.362Z" fill="#24126A"/>
<path d="M303.493 810.218L288.977 817.545L281.983 814.014L296.5 806.69L303.493 810.218Z" fill="#24126A"/>
<path d="M443.843 826.425L492.673 801.784C494.583 800.82 494.583 799.258 492.673 798.297L459.28 781.446C457.373 780.482 454.277 780.482 452.37 781.446L403.54 806.087C401.63 807.052 401.63 808.613 403.54 809.574L436.933 826.425C438.84 827.387 441.937 827.387 443.843 826.425Z" fill="url(#paint28_linear_15_907)"/>
<path d="M403.54 807.515L452.37 782.874C454.28 781.91 457.373 781.91 459.28 782.874L492.673 799.725C493.263 800.022 493.647 800.38 493.873 800.756C494.377 799.914 493.993 798.964 492.673 798.3L459.28 781.449C457.373 780.485 454.277 780.485 452.37 781.449L403.54 806.09C402.22 806.757 401.837 807.704 402.34 808.549C402.567 808.167 402.95 807.812 403.54 807.515Z" fill="#9198DB"/>
<g opacity="0.11">
<mask id="mask0_15_907" style="mask-type:luminance" maskUnits="userSpaceOnUse" x="197" y="555" width="240" height="243">
<path d="M410.123 555.066L197.897 662.157L224.213 797.761L436.297 690.743L410.123 555.066Z" fill="white"/>
</mask>
<g mask="url(#mask0_15_907)">
<path d="M440.59 696.193L222.66 806.163C220.273 807.366 216.667 807.497 214.6 806.454L84.55 740.832C82.4833 739.789 82.7433 737.968 85.13 736.765L303.06 626.795C305.447 625.592 309.053 625.461 311.12 626.504L441.167 692.126C443.237 693.169 442.977 694.99 440.59 696.193Z" fill="url(#paint29_linear_15_907)"/>
<path d="M222.01 715.911L270.84 691.27C272.75 690.306 272.75 688.744 270.84 687.783L237.447 670.932C235.537 669.968 232.443 669.968 230.537 670.932L181.707 695.573C179.797 696.537 179.797 698.099 181.707 699.06L215.1 715.911C217.007 716.872 220.103 716.872 222.01 715.911Z" fill="url(#paint30_linear_15_907)"/>
<path d="M181.707 697L230.537 672.359C232.447 671.395 235.54 671.395 237.447 672.359L270.84 689.21C271.43 689.507 271.813 689.866 272.04 690.242C272.547 689.4 272.16 688.45 270.84 687.786L237.447 670.935C235.537 669.971 232.443 669.971 230.537 670.935L181.707 695.576C180.387 696.243 180.003 697.19 180.507 698.032C180.733 697.653 181.117 697.298 181.707 697Z" fill="#9198DB"/>
<path d="M160.24 754.416L341.34 663.031C342.547 662.422 344.037 662.422 345.243 663.034L409.733 695.643C410.66 696.112 410.66 697.28 409.733 697.746L228.717 789.088C227.51 789.697 226.023 789.697 224.82 789.088L160.243 756.52C159.313 756.054 159.313 754.885 160.24 754.416Z" fill="#ADB1F2"/>
<path d="M160.24 756.522L160.887 756.849L341.34 665.793C342.547 665.184 344.037 665.184 345.243 665.795L409.083 698.078L409.73 697.752C410.657 697.286 410.657 696.115 409.73 695.648L345.24 663.039C344.033 662.428 342.547 662.428 341.337 663.037L160.237 754.422C159.313 754.885 159.313 756.053 160.24 756.522Z" fill="#9198DB"/>
<path d="M392.857 693.42L235.087 773.033L241.337 776.185L399.107 696.575L392.857 693.42Z" fill="#24126A"/>
<path d="M376.233 685.032L226.273 760.703L232.523 763.856L382.483 688.185L376.233 685.032Z" fill="#24126A"/>
<path d="M215.077 766.352L201.07 773.42L207.32 776.572L221.327 769.507L215.077 766.352Z" fill="#24126A"/>
<path d="M227.447 776.887L217.693 781.808L223.943 784.963L233.697 780.042L227.447 776.887Z" fill="#24126A"/>
<path d="M365.817 679.777L190.653 768.164L196.903 771.317L372.067 682.929L365.817 679.777Z" fill="#24126A"/>
<path d="M355.4 674.521L180.24 762.909L186.49 766.061L361.65 677.673L355.4 674.521Z" fill="#24126A"/>
<path d="M344.983 669.266L169.823 757.653L176.073 760.805L351.233 672.418L344.983 669.266Z" fill="#24126A"/>
</g>
</g>
<path d="M277.807 746.058L294.98 737.385L295.483 739.99L278.313 748.665L277.807 746.058Z" fill="#42E8E0"/>
<path d="M297.74 736.001L307.097 731.276L307.6 733.88L298.243 738.606L297.74 736.001Z" fill="#42E8E0"/>
<path d="M321.653 723.931L328.42 720.511L328.923 723.118L322.157 726.536L321.653 723.931Z" fill="#42E8E0"/>
<path d="M316.717 726.425L319.03 725.257L319.533 727.861L317.22 729.03L316.717 726.425Z" fill="#42E8E0"/>
<path d="M309.89 729.872L314.093 727.751L314.597 730.355L310.393 732.479L309.89 729.872Z" fill="#42E8E0"/>
<path d="M291.393 726.128L298.163 722.708L298.667 725.315L291.897 728.732L291.393 726.128Z" fill="#42E8E0"/>
<path d="M275.507 734.151L288.77 727.454L289.273 730.058L276.01 736.759L275.507 734.151Z" fill="#42E8E0"/>
<path d="M294.523 691.92L307.787 685.222L308.29 687.826L295.027 694.527L294.523 691.92Z" fill="#42E8E0"/>
<path d="M287.7 695.366L291.9 693.245L292.403 695.85L288.203 697.973L287.7 695.366Z" fill="#42E8E0"/>
<path d="M296.737 703.841L310 697.143L310.503 699.748L297.24 706.448L296.737 703.841Z" fill="#42E8E0"/>
<path d="M289.913 707.287L294.113 705.167L294.617 707.771L290.417 709.895L289.913 707.287Z" fill="#42E8E0"/>
<path d="M284.733 640.473L259.747 653.094L259.243 650.489L284.23 637.868L284.733 640.473Z" fill="#42E8E0"/>
<path d="M293.537 636.024L287.357 639.147L286.853 636.543L293.033 633.42L293.537 636.024Z" fill="#42E8E0"/>
<path d="M337.443 633.493L312.46 646.113L311.953 643.509L336.94 630.888L337.443 633.493Z" fill="#42E8E0"/>
<path d="M346.247 629.044L340.067 632.167L339.563 629.563L345.743 626.439L346.247 629.044Z" fill="#42E8E0"/>
<path d="M267.667 655.628L260.897 659.046L260.393 656.441L267.163 653.021L267.667 655.628Z" fill="#42E8E0"/>
<path d="M308.85 647.905L302.083 651.325L301.58 648.721L308.347 645.3L308.85 647.905Z" fill="#42E8E0"/>
<path d="M283.553 647.602L270.29 654.303L269.787 651.695L283.05 644.997L283.553 647.602Z" fill="#42E8E0"/>
<path d="M290.377 644.155L286.177 646.276L285.673 643.672L289.873 641.551L290.377 644.155Z" fill="#42E8E0"/>
<path d="M306.383 636.083L293.123 642.783L292.62 640.176L305.88 633.478L306.383 636.083Z" fill="#42E8E0"/>
<path d="M313.21 632.636L309.007 634.757L308.503 632.153L312.707 630.032L313.21 632.636Z" fill="#42E8E0"/>
<path d="M307.7 641.95L300.93 645.37L300.427 642.766L307.197 639.346L307.7 641.95Z" fill="#42E8E0"/>
<path d="M323.587 633.927L310.323 640.627L309.82 638.02L323.083 631.319L323.587 633.927Z" fill="#42E8E0"/>
<path d="M330.41 630.48L326.21 632.601L325.707 629.997L329.907 627.873L330.41 630.48Z" fill="#42E8E0"/>
<path d="M275.9 658.003L262.05 664.997L261.543 662.393L275.393 655.395L275.9 658.003Z" fill="#42E8E0"/>
<path d="M288.537 651.617L278.523 656.677L278.017 654.072L288.033 649.012L288.537 651.617Z" fill="#42E8E0"/>
<path d="M297.93 646.874L291.16 650.294L290.657 647.686L297.427 644.269L297.93 646.874Z" fill="#42E8E0"/>
<path d="M363.577 620.319L349.727 627.313L349.223 624.709L363.073 617.711L363.577 620.319Z" fill="#42E8E0"/>
<path d="M376.217 613.933L366.2 618.993L365.697 616.386L375.713 611.328L376.217 613.933Z" fill="#42E8E0"/>
<path d="M385.61 609.19L378.84 612.607L378.337 610.002L385.107 606.582L385.61 609.19Z" fill="#42E8E0"/>
<path d="M358.17 698.97L372.02 691.975L372.523 694.579L358.673 701.577L358.17 698.97Z" fill="#42E8E0"/>
<path d="M345.53 705.356L355.547 700.295L356.05 702.903L346.033 707.96L345.53 705.356Z" fill="#42E8E0"/>
<path d="M336.137 710.099L342.907 706.681L343.41 709.286L336.64 712.706L336.137 710.099Z" fill="#42E8E0"/>
<path d="M353.573 707.85L367.423 700.855L367.927 703.459L354.077 710.457L353.573 707.85Z" fill="#42E8E0"/>
<path d="M340.933 714.236L350.95 709.175L351.453 711.783L341.437 716.84L340.933 714.236Z" fill="#42E8E0"/>
<path d="M331.54 718.979L338.31 715.561L338.813 718.166L332.043 721.586L331.54 718.979Z" fill="#42E8E0"/>
<path d="M297.65 696.843L302.327 694.48L302.83 697.085L298.153 699.448L297.65 696.843Z" fill="#42E8E0"/>
<path d="M288.843 701.289L295.027 698.169L295.53 700.773L289.347 703.896L288.843 701.289Z" fill="#42E8E0"/>
<path d="M277.137 663.92L263.287 670.917L262.783 668.31L276.633 661.315L277.137 663.92Z" fill="#42E8E0"/>
<path d="M289.777 657.536L279.76 662.594L279.257 659.989L289.273 654.929L289.777 657.536Z" fill="#42E8E0"/>
<path d="M299.17 652.791L292.4 656.211L291.897 653.603L298.667 650.186L299.17 652.791Z" fill="#42E8E0"/>
<path d="M269.117 674.507L264.437 676.869L263.933 674.262L268.613 671.899L269.117 674.507Z" fill="#42E8E0"/>
<path d="M277.923 670.058L271.74 673.181L271.237 670.574L277.417 667.451L277.923 670.058Z" fill="#42E8E0"/>
<path d="M290.507 663.701L280.543 668.732L280.04 666.128L290.003 661.097L290.507 663.701Z" fill="#42E8E0"/>
<path d="M304.013 713.254L308.69 710.891L309.193 713.499L304.517 715.861L304.013 713.254Z" fill="#42E8E0"/>
<path d="M295.207 717.703L301.39 714.579L301.893 717.187L295.71 720.31L295.207 717.703Z" fill="#42E8E0"/>
<path d="M282.623 724.059L292.583 719.028L293.087 721.636L283.127 726.667L282.623 724.059Z" fill="#42E8E0"/>
<path d="M311.137 703.59L321.097 698.559L321.603 701.166L311.64 706.198L311.137 703.59Z" fill="#42E8E0"/>
<path d="M294.847 711.354L308.273 704.572L308.777 707.177L295.35 713.959L294.847 711.354Z" fill="#42E8E0"/>
<path d="M288.023 714.801L292.223 712.677L292.727 715.284L288.527 717.405L288.023 714.801Z" fill="#42E8E0"/>
<path d="M281.473 718.108L285.673 715.987L286.177 718.591L281.977 720.715L281.473 718.108Z" fill="#42E8E0"/>
<path d="M282.373 684.473L295.637 677.772L296.14 680.38L282.877 687.078L282.373 684.473Z" fill="#42E8E0"/>
<path d="M275.55 687.92L279.75 685.799L280.253 688.403L276.053 690.527L275.55 687.92Z" fill="#42E8E0"/>
<path d="M283.287 677.472L287.963 675.11L288.467 677.717L283.79 680.08L283.287 677.472Z" fill="#42E8E0"/>
<path d="M299.8 682.244L304.48 679.879L304.983 682.486L300.303 684.849L299.8 682.244Z" fill="#42E8E0"/>
<path d="M306.47 678.879L317.693 673.213L318.197 675.818L306.973 681.484L306.47 678.879Z" fill="#42E8E0"/>
<path d="M319.687 672.211L326.363 668.84L326.867 671.445L320.19 674.815L319.687 672.211Z" fill="#42E8E0"/>
<path d="M274.48 681.921L280.663 678.798L281.167 681.405L274.983 684.528L274.48 681.921Z" fill="#42E8E0"/>
<path d="M273.897 675.806L278.577 673.443L279.08 676.048L274.4 678.41L273.897 675.806Z" fill="#42E8E0"/>
<path d="M265.093 680.255L271.273 677.132L271.777 679.736L265.597 682.859L265.093 680.255Z" fill="#42E8E0"/>
<path d="M293.013 685.668L297.213 683.547L297.717 686.151L293.517 688.272L293.013 685.668Z" fill="#42E8E0"/>
<path d="M286.463 688.974L290.667 686.853L291.17 689.458L286.967 691.582L286.463 688.974Z" fill="#42E8E0"/>
<path d="M318.73 718.891L333.06 711.654L333.563 714.259L319.233 721.499L318.73 718.891Z" fill="#42E8E0"/>
<path d="M302.68 726.999L316.107 720.217L316.61 722.821L303.187 729.604L302.68 726.999Z" fill="#42E8E0"/>
<path d="M295.857 730.446L300.06 728.325L300.563 730.929L296.36 733.053L295.857 730.446Z" fill="#42E8E0"/>
<path d="M289.31 733.755L293.51 731.631L294.013 734.239L289.813 736.36L289.31 733.755Z" fill="#42E8E0"/>
<path d="M285.73 735.561L276.663 740.141L277.167 742.746L286.233 738.169L285.73 735.561Z" fill="#42E8E0"/>
<path d="M1650.4 902.912C1646.92 902.912 1643.49 902.114 1640.48 900.599L1442.74 800.817C1440.96 799.914 1439.89 798.306 1439.89 796.508C1439.89 794.708 1440.96 793.097 1442.74 792.196L1567.12 729.435L1567.67 729.711L1774.77 834.218C1776.56 835.122 1777.62 836.73 1777.62 838.527C1777.62 840.328 1776.56 841.939 1774.77 842.839L1660.31 900.599C1657.31 902.111 1653.88 902.912 1650.4 902.912ZM1641.58 898.941C1646.92 901.633 1653.88 901.633 1659.22 898.941L1773.68 841.181C1774.78 840.628 1775.43 839.634 1775.43 838.524C1775.43 837.417 1774.78 836.424 1773.68 835.87L1567.12 731.64L1566.7 731.847L1443.83 793.848C1442.74 794.402 1442.08 795.395 1442.08 796.505C1442.08 797.612 1442.74 798.606 1443.83 799.159L1641.58 898.941Z" fill="#8686F2"/>
<path d="M1566.87 689.303L1594.42 546.454L1592.2 545.638L1595.53 543.972L1595.52 543.989C1596.17 543.613 1597.08 543.637 1598.09 544.144L1818.26 655.244C1820.07 656.156 1821.44 658.495 1821.12 660.132L1793.35 804.118C1793.21 804.87 1792.78 805.365 1792.19 805.583L1788.94 807.229L1788.38 804.572L1788.57 804.622L1569.73 694.195C1567.92 693.28 1566.55 690.941 1566.87 689.303Z" fill="url(#paint31_linear_15_907)"/>
<path d="M1817.03 659.147L1820.65 657.749C1821.06 658.559 1821.26 659.413 1821.12 660.129L1793.35 804.115C1793.2 804.867 1792.78 805.362 1792.19 805.58H1792.19L1788.94 807.224L1788.38 804.566L1788.56 804.616L1777.49 799.028L1817.03 659.147Z" fill="url(#paint32_linear_15_907)"/>
<path d="M1566.27 695.922L1786.44 807.022C1788.14 807.879 1789.6 807.384 1789.89 805.845L1817.66 661.86C1817.98 660.223 1816.61 657.883 1814.8 656.971L1594.63 545.871C1592.93 545.015 1591.47 545.51 1591.18 547.048L1563.41 691.034C1563.09 692.671 1564.46 695.011 1566.27 695.922Z" fill="#24126A"/>
<g opacity="0.51">
<path d="M1597.51 555.066L1809.74 662.157L1783.42 797.761L1571.34 690.743L1597.51 555.066Z" fill="#453C9E"/>
</g>
<path d="M1427.87 764.092L1439.89 769.577L1560.37 708.782C1562.39 707.765 1565.91 707.893 1568.23 709.067L1776.03 813.924C1778.02 812.951 1787.09 809.14 1787.09 809.14L1782.69 819.156L1782.67 819.145C1782.49 819.591 1782.1 820.007 1781.44 820.336L1654.55 884.366C1652.53 885.382 1649.01 885.257 1646.69 884.08L1434.04 776.779C1433.09 776.296 1432.5 775.713 1432.26 775.121L1432.24 775.13L1427.87 764.092Z" fill="url(#paint33_linear_15_907)"/>
<path d="M1429.73 765.819L1647.66 875.789C1650.05 876.992 1653.65 877.123 1655.72 876.08L1785.77 810.457C1787.83 809.414 1787.57 807.593 1785.19 806.39L1567.26 696.421C1564.87 695.218 1561.26 695.086 1559.2 696.129L1429.15 761.752C1427.08 762.792 1427.34 764.613 1429.73 765.819Z" fill="url(#paint34_linear_15_907)"/>
<path d="M1429.73 764.721L1647.66 874.69C1650.05 875.894 1653.65 876.025 1655.72 874.982L1785.77 809.359C1786.44 809.018 1786.84 808.59 1787.03 808.13C1787.36 808.986 1786.96 809.851 1785.77 810.454L1655.72 876.077C1653.65 877.12 1650.05 876.989 1647.66 875.786L1429.73 765.816C1428.13 765.006 1427.51 763.92 1427.89 762.979C1428.12 763.599 1428.73 764.214 1429.73 764.721Z" fill="white"/>
<path d="M1713.39 851.999V849.91C1713.39 849.712 1713.26 849.621 1713.09 849.706L1704.66 853.959C1704.49 854.044 1704.35 854.274 1704.35 854.472V856.561C1704.35 856.759 1704.49 856.849 1704.66 856.765L1713.09 852.511C1713.26 852.427 1713.39 852.197 1713.39 851.999Z" fill="#2842A2"/>
<path d="M1700.79 858.361V856.272C1700.79 856.074 1700.65 855.984 1700.48 856.068L1692.05 860.322C1691.88 860.409 1691.75 860.636 1691.75 860.835V862.923C1691.75 863.122 1691.88 863.212 1692.05 863.127L1700.48 858.874C1700.65 858.787 1700.79 858.556 1700.79 858.361Z" fill="#2842A2"/>
<path d="M1751.86 804.31L1570.76 712.925C1569.56 712.316 1568.07 712.316 1566.86 712.928L1502.37 745.537C1501.44 746.006 1501.44 747.174 1502.37 747.64L1683.39 838.982C1684.59 839.591 1686.08 839.591 1687.28 838.982L1751.86 806.414C1752.79 805.947 1752.79 804.779 1751.86 804.31Z" fill="#ADB1F2"/>
<path d="M1751.86 806.417L1751.21 806.743L1570.76 715.687C1569.55 715.078 1568.06 715.078 1566.86 715.689L1503.02 747.972L1502.37 747.646C1501.44 747.18 1501.44 746.009 1502.37 745.542L1566.86 712.933C1568.07 712.322 1569.55 712.322 1570.76 712.931L1751.86 804.316C1752.79 804.779 1752.79 805.947 1751.86 806.417Z" fill="#9198DB"/>
<path d="M1561.99 721.187L1719.31 800.567L1726.3 797.036L1568.99 717.656L1561.99 721.187Z" fill="#24126A"/>
<path d="M1544.85 729.84L1692.4 804.296L1699.39 800.765L1551.84 726.309L1544.85 729.84Z" fill="#24126A"/>
<path d="M1533.68 735.477L1707.4 823.139L1714.4 819.608L1540.67 731.946L1533.68 735.477Z" fill="#24126A"/>
<path d="M1522.51 741.111L1696.23 828.773L1703.23 825.245L1529.5 737.58L1522.51 741.111Z" fill="#24126A"/>
<path d="M1511.34 746.746L1685.07 834.411L1692.06 830.88L1518.33 743.218L1511.34 746.746Z" fill="#24126A"/>
<path d="M1728.81 805.362L1735.81 808.893L1742.8 805.362L1735.81 801.834L1728.81 805.362Z" fill="#24126A"/>
<path d="M1704.14 810.218L1718.66 817.545L1725.65 814.014L1711.13 806.69L1704.14 810.218Z" fill="#24126A"/>
<path d="M1563.79 826.425L1514.96 801.784C1513.05 800.82 1513.05 799.258 1514.96 798.297L1548.35 781.446C1550.26 780.482 1553.36 780.482 1555.26 781.446L1604.1 806.087C1606 807.052 1606.01 808.613 1604.1 809.574L1570.7 826.425C1568.79 827.387 1565.7 827.387 1563.79 826.425Z" fill="url(#paint35_linear_15_907)"/>
<path d="M1604.09 807.515L1555.26 782.874C1553.35 781.91 1550.26 781.91 1548.35 782.874L1514.96 799.725C1514.37 800.022 1513.98 800.38 1513.76 800.756C1513.25 799.914 1513.64 798.964 1514.96 798.3L1548.35 781.449C1550.26 780.485 1553.35 780.485 1555.26 781.449L1604.09 806.09C1605.41 806.757 1605.8 807.704 1605.29 808.549C1605.07 808.167 1604.68 807.812 1604.09 807.515Z" fill="#9198DB"/>
<g opacity="0.11">
<mask id="mask1_15_907" style="mask-type:luminance" maskUnits="userSpaceOnUse" x="1571" y="555" width="239" height="243">
<path d="M1597.51 555.066L1809.74 662.157L1783.42 797.761L1571.34 690.743L1597.51 555.066Z" fill="white"/>
</mask>
<g mask="url(#mask1_15_907)">
<path d="M1567.04 696.193L1784.97 806.163C1787.36 807.366 1790.97 807.497 1793.03 806.454L1923.08 740.832C1925.15 739.789 1924.89 737.968 1922.5 736.765L1704.57 626.795C1702.18 625.592 1698.58 625.461 1696.51 626.504L1566.46 692.126C1564.4 693.169 1564.66 694.99 1567.04 696.193Z" fill="url(#paint36_linear_15_907)"/>
<path d="M1785.62 715.911L1736.79 691.27C1734.88 690.306 1734.88 688.744 1736.79 687.783L1770.19 670.932C1772.1 669.968 1775.19 669.968 1777.1 670.932L1825.93 695.573C1827.84 696.537 1827.84 698.099 1825.93 699.06L1792.53 715.911C1790.63 716.872 1787.53 716.872 1785.62 715.911Z" fill="url(#paint37_linear_15_907)"/>
<path d="M1825.93 697L1777.1 672.359C1775.19 671.395 1772.09 671.395 1770.19 672.359L1736.79 689.21C1736.2 689.507 1735.82 689.866 1735.59 690.242C1735.09 689.4 1735.47 688.45 1736.79 687.786L1770.19 670.935C1772.1 669.971 1775.19 669.971 1777.1 670.935L1825.93 695.576C1827.25 696.243 1827.63 697.19 1827.13 698.032C1826.9 697.653 1826.52 697.298 1825.93 697Z" fill="#9198DB"/>
<path d="M1847.39 754.416L1666.29 663.031C1665.09 662.422 1663.6 662.422 1662.39 663.034L1597.9 695.646C1596.97 696.115 1596.97 697.283 1597.9 697.749L1778.92 789.091C1780.12 789.7 1781.61 789.7 1782.81 789.091L1847.39 756.523C1848.32 756.054 1848.32 754.885 1847.39 754.416Z" fill="#ADB1F2"/>
<path d="M1847.39 756.522L1846.74 756.849L1666.29 665.793C1665.08 665.184 1663.59 665.184 1662.39 665.795L1598.55 698.078L1597.9 697.752C1596.97 697.286 1596.97 696.115 1597.9 695.648L1662.39 663.039C1663.6 662.428 1665.08 662.428 1666.29 663.037L1847.39 754.422C1848.32 754.885 1848.32 756.053 1847.39 756.522Z" fill="#9198DB"/>
<path d="M1614.78 693.42L1772.55 773.033L1766.3 776.185L1608.53 696.575L1614.78 693.42Z" fill="#24126A"/>
<path d="M1631.4 685.032L1781.36 760.703L1775.11 763.856L1625.15 688.185L1631.4 685.032Z" fill="#24126A"/>
<path d="M1792.56 766.352L1806.56 773.42L1800.31 776.572L1786.31 769.507L1792.56 766.352Z" fill="#24126A"/>
<path d="M1780.19 776.887L1789.94 781.808L1783.69 784.963L1773.94 780.042L1780.19 776.887Z" fill="#24126A"/>
<path d="M1641.82 679.777L1816.98 768.164L1810.73 771.317L1635.57 682.929L1641.82 679.777Z" fill="#24126A"/>
<path d="M1652.23 674.521L1827.39 762.909L1821.15 766.061L1645.98 677.673L1652.23 674.521Z" fill="#24126A"/>
<path d="M1662.65 669.266L1837.81 757.653L1831.56 760.805L1656.4 672.418L1662.65 669.266Z" fill="#24126A"/>
</g>
</g>
<path d="M1644.23 606.002L1661.4 614.675L1661.91 612.071L1644.74 603.398L1644.23 606.002Z" fill="#42E8E0"/>
<path d="M1664.17 616.059L1673.52 620.788L1674.02 618.18L1664.67 613.455L1664.17 616.059Z" fill="#42E8E0"/>
<path d="M1688.08 628.129L1694.85 631.55L1695.35 628.942L1688.58 625.525L1688.08 628.129Z" fill="#42E8E0"/>
<path d="M1683.14 625.635L1685.45 626.804L1685.96 624.199L1683.64 623.031L1683.14 625.635Z" fill="#42E8E0"/>
<path d="M1676.32 622.189L1680.52 624.31L1681.02 621.705L1676.82 619.582L1676.32 622.189Z" fill="#42E8E0"/>
<path d="M1657.82 625.933L1664.59 629.353L1665.09 626.745L1658.32 623.328L1657.82 625.933Z" fill="#42E8E0"/>
<path d="M1641.93 617.909L1655.2 624.607L1655.7 622.002L1642.44 615.302L1641.93 617.909Z" fill="#42E8E0"/>
<path d="M1660.95 660.141L1674.21 666.842L1674.71 664.234L1661.45 657.536L1660.95 660.141Z" fill="#42E8E0"/>
<path d="M1654.12 656.694L1658.32 658.815L1658.83 656.211L1654.63 654.087L1654.12 656.694Z" fill="#42E8E0"/>
<path d="M1663.16 648.22L1676.42 654.92L1676.93 652.313L1663.66 645.615L1663.16 648.22Z" fill="#42E8E0"/>
<path d="M1656.34 644.773L1660.54 646.894L1661.04 644.289L1656.84 642.166L1656.34 644.773Z" fill="#42E8E0"/>
<path d="M1651.16 711.587L1626.17 698.967L1625.67 701.571L1650.65 714.192L1651.16 711.587Z" fill="#42E8E0"/>
<path d="M1659.96 716.036L1653.78 712.913L1653.28 715.518L1659.46 718.641L1659.96 716.036Z" fill="#42E8E0"/>
<path d="M1703.87 718.568L1678.88 705.947L1678.38 708.552L1703.36 721.172L1703.87 718.568Z" fill="#42E8E0"/>
<path d="M1712.67 723.017L1706.49 719.893L1705.99 722.498L1712.17 725.621L1712.67 723.017Z" fill="#42E8E0"/>
<path d="M1634.09 696.435L1627.32 693.015L1626.82 695.619L1633.59 699.04L1634.09 696.435Z" fill="#42E8E0"/>
<path d="M1675.28 704.156L1668.51 700.735L1668 703.34L1674.77 706.76L1675.28 704.156Z" fill="#42E8E0"/>
<path d="M1649.98 704.459L1636.72 697.758L1636.21 700.365L1649.47 707.063L1649.98 704.459Z" fill="#42E8E0"/>
<path d="M1656.8 707.905L1652.6 705.784L1652.1 708.389L1656.3 710.512L1656.8 707.905Z" fill="#42E8E0"/>
<path d="M1672.81 715.978L1659.55 709.277L1659.04 711.885L1672.31 718.585L1672.81 715.978Z" fill="#42E8E0"/>
<path d="M1679.63 719.424L1675.43 717.303L1674.93 719.908L1679.13 722.032L1679.63 719.424Z" fill="#42E8E0"/>
<path d="M1674.13 710.11L1667.36 706.69L1666.85 709.298L1673.62 712.715L1674.13 710.11Z" fill="#42E8E0"/>
<path d="M1690.01 718.134L1676.75 711.436L1676.25 714.04L1689.51 720.741L1690.01 718.134Z" fill="#42E8E0"/>
<path d="M1696.84 721.58L1692.63 719.459L1692.13 722.064L1696.33 724.188L1696.84 721.58Z" fill="#42E8E0"/>
<path d="M1642.32 694.058L1628.47 687.063L1627.97 689.668L1641.82 696.665L1642.32 694.058Z" fill="#42E8E0"/>
<path d="M1654.96 700.444L1644.95 695.384L1644.44 697.988L1654.46 703.049L1654.96 700.444Z" fill="#42E8E0"/>
<path d="M1664.35 705.187L1657.59 701.77L1657.08 704.374L1663.85 707.794L1664.35 705.187Z" fill="#42E8E0"/>
<path d="M1730 731.745L1716.15 724.747L1715.65 727.352L1729.5 734.349L1730 731.745Z" fill="#42E8E0"/>
<path d="M1742.64 738.128L1732.63 733.068L1732.12 735.675L1742.14 740.732L1742.64 738.128Z" fill="#42E8E0"/>
<path d="M1752.03 742.874L1745.27 739.454L1744.76 742.058L1751.53 745.478L1752.03 742.874Z" fill="#42E8E0"/>
<path d="M1724.59 653.091L1738.44 660.086L1738.95 657.481L1725.1 650.483L1724.59 653.091Z" fill="#42E8E0"/>
<path d="M1711.95 646.705L1721.97 651.765L1722.47 649.158L1712.46 644.1L1711.95 646.705Z" fill="#42E8E0"/>
<path d="M1702.56 641.962L1709.33 645.379L1709.84 642.775L1703.07 639.354L1702.56 641.962Z" fill="#42E8E0"/>
<path d="M1720 644.211L1733.85 651.206L1734.35 648.601L1720.5 641.603L1720 644.211Z" fill="#42E8E0"/>
<path d="M1707.36 637.825L1717.37 642.885L1717.88 640.278L1707.86 635.22L1707.36 637.825Z" fill="#42E8E0"/>
<path d="M1697.97 633.082L1704.73 636.499L1705.24 633.895L1698.47 630.474L1697.97 633.082Z" fill="#42E8E0"/>
<path d="M1664.07 655.22L1668.75 657.583L1669.26 654.976L1664.58 652.613L1664.07 655.22Z" fill="#42E8E0"/>
<path d="M1655.27 650.772L1661.45 653.895L1661.95 651.287L1655.77 648.164L1655.27 650.772Z" fill="#42E8E0"/>
<path d="M1643.56 688.141L1629.71 681.146L1629.21 683.751L1643.06 690.746L1643.56 688.141Z" fill="#42E8E0"/>
<path d="M1656.2 694.524L1646.19 689.467L1645.68 692.071L1655.7 697.132L1656.2 694.524Z" fill="#42E8E0"/>
<path d="M1665.59 699.27L1658.83 695.85L1658.32 698.457L1665.09 701.877L1665.59 699.27Z" fill="#42E8E0"/>
<path d="M1635.54 677.554L1630.86 675.191L1630.36 677.799L1635.04 680.161L1635.54 677.554Z" fill="#42E8E0"/>
<path d="M1644.35 682.003L1638.16 678.879L1637.66 681.487L1643.84 684.61L1644.35 682.003Z" fill="#42E8E0"/>
<path d="M1656.93 688.359L1646.97 683.328L1646.47 685.936L1656.43 690.967L1656.93 688.359Z" fill="#42E8E0"/>
<path d="M1670.44 638.807L1675.12 641.169L1675.62 638.562L1670.94 636.199L1670.44 638.807Z" fill="#42E8E0"/>
<path d="M1661.63 634.358L1667.81 637.481L1668.32 634.874L1662.14 631.751L1661.63 634.358Z" fill="#42E8E0"/>
<path d="M1649.05 628.001L1659.01 633.032L1659.51 630.428L1649.55 625.397L1649.05 628.001Z" fill="#42E8E0"/>
<path d="M1677.56 648.47L1687.52 653.501L1688.03 650.894L1678.07 645.863L1677.56 648.47Z" fill="#42E8E0"/>
<path d="M1661.27 640.709L1674.7 647.488L1675.2 644.884L1661.78 638.102L1661.27 640.709Z" fill="#42E8E0"/>
<path d="M1654.45 637.26L1658.65 639.383L1659.15 636.776L1654.95 634.655L1654.45 637.26Z" fill="#42E8E0"/>
<path d="M1647.9 633.953L1652.1 636.074L1652.6 633.469L1648.4 631.346L1647.9 633.953Z" fill="#42E8E0"/>
<path d="M1648.8 667.587L1662.06 674.288L1662.56 671.681L1649.3 664.983L1648.8 667.587Z" fill="#42E8E0"/>
<path d="M1641.97 664.141L1646.18 666.262L1646.68 663.657L1642.48 661.536L1641.97 664.141Z" fill="#42E8E0"/>
<path d="M1649.71 674.588L1654.39 676.951L1654.89 674.343L1650.21 671.981L1649.71 674.588Z" fill="#42E8E0"/>
<path d="M1666.23 669.819L1670.9 672.182L1671.41 669.574L1666.73 667.212L1666.23 669.819Z" fill="#42E8E0"/>
<path d="M1672.89 673.184L1684.12 678.847L1684.62 676.243L1673.4 670.577L1672.89 673.184Z" fill="#42E8E0"/>
<path d="M1686.11 679.85L1692.79 683.223L1693.29 680.616L1686.61 677.245L1686.11 679.85Z" fill="#42E8E0"/>
<path d="M1640.91 670.139L1647.09 673.263L1647.59 670.655L1641.41 667.532L1640.91 670.139Z" fill="#42E8E0"/>
<path d="M1640.32 676.255L1645 678.617L1645.5 676.013L1640.83 673.65L1640.32 676.255Z" fill="#42E8E0"/>
<path d="M1631.52 671.809L1637.7 674.929L1638.2 672.324L1632.02 669.201L1631.52 671.809Z" fill="#42E8E0"/>
<path d="M1659.44 666.393L1663.64 668.517L1664.14 665.909L1659.94 663.788L1659.44 666.393Z" fill="#42E8E0"/>
<path d="M1652.89 663.086L1657.09 665.207L1657.59 662.603L1653.39 660.479L1652.89 663.086Z" fill="#42E8E0"/>
<path d="M1685.16 633.169L1699.48 640.406L1699.99 637.802L1685.66 630.565L1685.16 633.169Z" fill="#42E8E0"/>
<path d="M1669.11 625.061L1682.53 631.844L1683.04 629.239L1669.61 622.457L1669.11 625.061Z" fill="#42E8E0"/>
<path d="M1662.28 621.615L1666.48 623.736L1666.99 621.131L1662.79 619.011L1662.28 621.615Z" fill="#42E8E0"/>
<path d="M1655.73 618.308L1659.93 620.429L1660.44 617.825L1656.24 615.701L1655.73 618.308Z" fill="#42E8E0"/>
<path d="M1652.15 616.499L1643.09 611.919L1643.59 609.315L1652.66 613.892L1652.15 616.499Z" fill="#42E8E0"/>
<path d="M725.027 1029.71C722.153 1029.71 719.283 1029.07 716.72 1027.77L469.713 903.136C468.06 902.303 467.077 900.809 467.077 899.142C467.077 897.473 468.063 895.978 469.713 895.145L686.797 785.604L687.89 787.258L470.807 896.8C469.837 897.289 469.26 898.163 469.26 899.142C469.26 900.118 469.837 900.992 470.807 901.482L717.813 1026.12C722.263 1028.37 727.79 1028.37 732.237 1026.12L860.243 961.528L861.337 963.183L733.33 1027.77C730.77 1029.07 727.897 1029.71 725.027 1029.71Z" fill="#8686F2"/>
<path d="M594.44 991.981C611.699 991.981 625.69 979.753 625.69 964.669C625.69 949.584 611.699 937.356 594.44 937.356C577.181 937.356 563.19 949.584 563.19 964.669C563.19 979.753 577.181 991.981 594.44 991.981Z" fill="url(#paint38_radial_15_907)"/>
<path d="M601.773 960.919C599.407 957.38 594.2 956.185 590.15 958.257C586.1 960.328 584.733 964.876 587.103 968.415C589.47 971.955 594.677 973.149 598.727 971.078C602.777 969.01 604.143 964.462 601.773 960.919Z" fill="url(#paint39_radial_15_907)"/>
<path d="M816.32 1010.92C833.579 1010.92 847.57 998.69 847.57 983.605C847.57 968.521 833.579 956.293 816.32 956.293C799.061 956.293 785.07 968.521 785.07 983.605C785.07 998.69 799.061 1010.92 816.32 1010.92Z" fill="url(#paint40_radial_15_907)"/>
<path d="M823.653 979.856C821.283 976.316 816.08 975.122 812.03 977.193C807.98 979.265 806.613 983.812 808.983 987.352C811.35 990.892 816.557 992.086 820.607 990.015C824.66 987.946 826.023 983.399 823.653 979.856Z" fill="url(#paint41_radial_15_907)"/>
<path d="M1196.94 1008.73C1214.2 1008.73 1228.19 996.505 1228.19 981.42C1228.19 966.336 1214.2 954.108 1196.94 954.108C1179.68 954.108 1165.69 966.336 1165.69 981.42C1165.69 996.505 1179.68 1008.73 1196.94 1008.73Z" fill="url(#paint42_radial_15_907)"/>
<path d="M1204.28 977.671C1201.91 974.131 1196.7 972.937 1192.65 975.008C1188.6 977.08 1187.24 981.627 1189.61 985.167C1191.97 988.707 1197.18 989.901 1201.23 987.83C1205.28 985.761 1206.64 981.214 1204.28 977.671Z" fill="url(#paint43_radial_15_907)"/>
<path d="M1264.82 988.576C1256.11 975.553 1236.97 971.168 1222.07 978.781C1207.17 986.393 1202.16 1003.12 1210.87 1016.14C1219.58 1029.17 1238.72 1033.55 1253.62 1025.94C1268.52 1018.33 1273.53 1001.6 1264.82 988.576Z" fill="url(#paint44_radial_15_907)"/>
<path d="M1237.84 1009.78C1242.54 1009.78 1246.34 1006.46 1246.34 1002.36C1246.34 998.257 1242.54 994.932 1237.84 994.932C1233.15 994.932 1229.35 998.257 1229.35 1002.36C1229.35 1006.46 1233.15 1009.78 1237.84 1009.78Z" fill="url(#paint45_radial_15_907)"/>
<path d="M1460.89 973.216C1478.15 973.216 1492.14 960.988 1492.14 945.904C1492.14 930.82 1478.15 918.591 1460.89 918.591C1443.63 918.591 1429.64 930.82 1429.64 945.904C1429.64 960.988 1443.63 973.216 1460.89 973.216Z" fill="url(#paint46_radial_15_907)"/>
<path d="M1468.23 942.157C1465.86 938.618 1460.65 937.423 1456.6 939.495C1452.55 941.563 1451.19 946.114 1453.56 949.653C1455.93 953.193 1461.13 954.388 1465.18 952.316C1469.23 950.245 1470.6 945.697 1468.23 942.157Z" fill="url(#paint47_radial_15_907)"/>
<path d="M1540.51 864.628C1531.8 851.605 1512.66 847.221 1497.76 854.833C1482.86 862.446 1477.84 879.174 1486.55 892.197C1495.26 905.219 1514.4 909.604 1529.3 901.991C1544.2 894.379 1549.22 877.65 1540.51 864.628Z" fill="url(#paint48_radial_15_907)"/>
<path d="M1520.86 874.664C1518.49 871.125 1513.29 869.93 1509.24 872.001C1505.19 874.073 1503.82 878.621 1506.19 882.16C1508.56 885.7 1513.77 886.894 1517.82 884.823C1521.87 882.752 1523.23 878.204 1520.86 874.664Z" fill="url(#paint49_radial_15_907)"/>
<path d="M1492.38 839.815C1483.67 826.792 1464.53 822.408 1449.63 830.02C1434.73 837.633 1429.71 854.361 1438.42 867.384C1447.13 880.406 1466.27 884.791 1481.17 877.178C1496.07 869.566 1501.09 852.838 1492.38 839.815Z" fill="url(#paint50_radial_15_907)"/>
<path d="M1472.74 849.851C1470.37 846.312 1465.16 845.117 1461.11 847.189C1457.06 849.26 1455.7 853.808 1458.07 857.347C1460.43 860.887 1465.64 862.082 1469.69 860.01C1473.74 857.942 1475.1 853.394 1472.74 849.851Z" fill="url(#paint51_radial_15_907)"/>
<path d="M1444.26 816.733C1435.55 803.71 1416.41 799.325 1401.51 806.938C1386.61 814.55 1381.59 831.279 1390.3 844.301C1399.01 857.324 1418.15 861.709 1433.05 854.096C1447.95 846.486 1452.97 829.758 1444.26 816.733Z" fill="url(#paint52_radial_15_907)"/>
<path d="M1424.61 826.769C1422.24 823.229 1417.04 822.035 1412.99 824.106C1408.94 826.175 1407.57 830.725 1409.94 834.265C1412.31 837.805 1417.52 838.999 1421.57 836.928C1425.62 834.859 1426.98 830.312 1424.61 826.769Z" fill="url(#paint53_radial_15_907)"/>
<path d="M582.533 931.104C573.823 918.082 554.683 913.697 539.783 921.31C524.883 928.922 519.867 945.65 528.577 958.673C537.287 971.696 556.427 976.08 571.327 968.468C586.227 960.855 591.247 944.127 582.533 931.104Z" fill="url(#paint54_radial_15_907)"/>
<path d="M555.557 952.313C560.249 952.313 564.053 948.989 564.053 944.887C564.053 940.786 560.249 937.461 555.557 937.461C550.864 937.461 547.06 940.786 547.06 944.887C547.06 948.989 550.864 952.313 555.557 952.313Z" fill="url(#paint55_radial_15_907)"/>
<path d="M516.673 952.421C533.932 952.421 547.923 940.193 547.923 925.109C547.923 910.024 533.932 897.796 516.673 897.796C499.414 897.796 485.423 910.024 485.423 925.109C485.423 940.193 499.414 952.421 516.673 952.421Z" fill="url(#paint56_radial_15_907)"/>
<path d="M524.007 921.362C521.64 917.822 516.433 916.628 512.383 918.699C508.333 920.771 506.967 925.318 509.337 928.858C511.703 932.398 516.91 933.592 520.96 931.521C525.01 929.449 526.377 924.902 524.007 921.362Z" fill="url(#paint57_radial_15_907)"/>
<path d="M638.113 809.353C629.403 796.33 610.263 791.946 595.363 799.558C580.463 807.171 575.447 823.899 584.157 836.922C592.867 849.945 612.007 854.332 626.907 846.717C641.807 839.107 646.823 822.379 638.113 809.353Z" fill="url(#paint58_radial_15_907)"/>
<path d="M618.47 819.39C616.103 815.85 610.897 814.655 606.847 816.727C602.797 818.798 601.43 823.346 603.8 826.886C606.167 830.425 611.373 831.62 615.423 829.548C619.473 827.48 620.837 822.932 618.47 819.39Z" fill="url(#paint59_radial_15_907)"/>
<path d="M679.653 790.265C670.943 777.242 651.803 772.858 636.903 780.47C622.003 788.083 616.987 804.811 625.697 817.834C634.407 830.856 653.547 835.241 668.447 827.628C683.347 820.016 688.363 803.288 679.653 790.265Z" fill="url(#paint60_radial_15_907)"/>
<path d="M660.01 800.301C657.643 796.762 652.437 795.567 648.387 797.639C644.337 799.71 642.97 804.258 645.34 807.797C647.707 811.337 652.913 812.532 656.963 810.46C661.013 808.392 662.38 803.844 660.01 800.301Z" fill="url(#paint61_radial_15_907)"/>
<defs>
<linearGradient id="paint0_linear_15_907" x1="1315.49" y1="697.587" x2="1369.71" y2="590.142" gradientUnits="userSpaceOnUse">
<stop stop-color="#42E8E0"/>
<stop offset="0.0185" stop-color="#40DEDA"/>
<stop offset="0.1149" stop-color="#37ADBC"/>
<stop offset="0.2166" stop-color="#2E82A2"/>
<stop offset="0.3219" stop-color="#285E8C"/>
<stop offset="0.4319" stop-color="#22417A"/>
<stop offset="0.5479" stop-color="#1E2A6C"/>
<stop offset="0.6729" stop-color="#1A1A63"/>
<stop offset="0.813" stop-color="#19105D"/>
<stop offset="1" stop-color="#180D5B"/>
</linearGradient>
<linearGradient id="paint1_linear_15_907" x1="1215.72" y1="697.587" x2="1161.5" y2="590.135" gradientUnits="userSpaceOnUse">
<stop stop-color="#42E8E0"/>
<stop offset="0.0185" stop-color="#40DEDA"/>
<stop offset="0.1149" stop-color="#37ADBC"/>
<stop offset="0.2166" stop-color="#2E82A2"/>
<stop offset="0.3219" stop-color="#285E8C"/>
<stop offset="0.4319" stop-color="#22417A"/>
<stop offset="0.5479" stop-color="#1E2A6C"/>
<stop offset="0.6729" stop-color="#1A1A63"/>
<stop offset="0.813" stop-color="#19105D"/>
<stop offset="1" stop-color="#180D5B"/>
</linearGradient>
<linearGradient id="paint2_linear_15_907" x1="1215.72" y1="747.927" x2="1161.5" y2="855.372" gradientUnits="userSpaceOnUse">
<stop stop-color="#42E8E0"/>
<stop offset="0.0185" stop-color="#40DEDA"/>
<stop offset="0.1149" stop-color="#37ADBC"/>
<stop offset="0.2166" stop-color="#2E82A2"/>
<stop offset="0.3219" stop-color="#285E8C"/>
<stop offset="0.4319" stop-color="#22417A"/>
<stop offset="0.5479" stop-color="#1E2A6C"/>
<stop offset="0.6729" stop-color="#1A1A63"/>
<stop offset="0.813" stop-color="#19105D"/>
<stop offset="1" stop-color="#180D5B"/>
</linearGradient>
<linearGradient id="paint3_linear_15_907" x1="1315.49" y1="747.928" x2="1369.71" y2="855.378" gradientUnits="userSpaceOnUse">
<stop stop-color="#42E8E0"/>
<stop offset="0.0185" stop-color="#40DEDA"/>
<stop offset="0.1149" stop-color="#37ADBC"/>
<stop offset="0.2166" stop-color="#2E82A2"/>
<stop offset="0.3219" stop-color="#285E8C"/>
<stop offset="0.4319" stop-color="#22417A"/>
<stop offset="0.5479" stop-color="#1E2A6C"/>
<stop offset="0.6729" stop-color="#1A1A63"/>
<stop offset="0.813" stop-color="#19105D"/>
<stop offset="1" stop-color="#180D5B"/>
</linearGradient>
<linearGradient id="paint4_linear_15_907" x1="801.35" y1="697.587" x2="855.569" y2="590.142" gradientUnits="userSpaceOnUse">
<stop stop-color="#42E8E0"/>
<stop offset="0.0185" stop-color="#40DEDA"/>
<stop offset="0.1149" stop-color="#37ADBC"/>
<stop offset="0.2166" stop-color="#2E82A2"/>
<stop offset="0.3219" stop-color="#285E8C"/>
<stop offset="0.4319" stop-color="#22417A"/>
<stop offset="0.5479" stop-color="#1E2A6C"/>
<stop offset="0.6729" stop-color="#1A1A63"/>
<stop offset="0.813" stop-color="#19105D"/>
<stop offset="1" stop-color="#180D5B"/>
</linearGradient>
<linearGradient id="paint5_linear_15_907" x1="701.581" y1="697.586" x2="647.357" y2="590.135" gradientUnits="userSpaceOnUse">
<stop stop-color="#42E8E0"/>
<stop offset="0.0185" stop-color="#40DEDA"/>
<stop offset="0.1149" stop-color="#37ADBC"/>
<stop offset="0.2166" stop-color="#2E82A2"/>
<stop offset="0.3219" stop-color="#285E8C"/>
<stop offset="0.4319" stop-color="#22417A"/>
<stop offset="0.5479" stop-color="#1E2A6C"/>
<stop offset="0.6729" stop-color="#1A1A63"/>
<stop offset="0.813" stop-color="#19105D"/>
<stop offset="1" stop-color="#180D5B"/>
</linearGradient>
<linearGradient id="paint6_linear_15_907" x1="701.58" y1="747.927" x2="647.361" y2="855.372" gradientUnits="userSpaceOnUse">
<stop stop-color="#42E8E0"/>
<stop offset="0.0185" stop-color="#40DEDA"/>
<stop offset="0.1149" stop-color="#37ADBC"/>
<stop offset="0.2166" stop-color="#2E82A2"/>
<stop offset="0.3219" stop-color="#285E8C"/>
<stop offset="0.4319" stop-color="#22417A"/>
<stop offset="0.5479" stop-color="#1E2A6C"/>
<stop offset="0.6729" stop-color="#1A1A63"/>
<stop offset="0.813" stop-color="#19105D"/>
<stop offset="1" stop-color="#180D5B"/>
</linearGradient>
<linearGradient id="paint7_linear_15_907" x1="801.348" y1="747.928" x2="855.573" y2="855.379" gradientUnits="userSpaceOnUse">
<stop stop-color="#42E8E0"/>
<stop offset="0.0185" stop-color="#40DEDA"/>
<stop offset="0.1149" stop-color="#37ADBC"/>
<stop offset="0.2166" stop-color="#2E82A2"/>
<stop offset="0.3219" stop-color="#285E8C"/>
<stop offset="0.4319" stop-color="#22417A"/>
<stop offset="0.5479" stop-color="#1E2A6C"/>
<stop offset="0.6729" stop-color="#1A1A63"/>
<stop offset="0.813" stop-color="#19105D"/>
<stop offset="1" stop-color="#180D5B"/>
</linearGradient>
<linearGradient id="paint8_linear_15_907" x1="560.741" y1="747.417" x2="889.024" y2="747.417" gradientUnits="userSpaceOnUse">
<stop stop-color="#5761D7"/>
<stop offset="0.1645" stop-color="#5E67DA"/>
<stop offset="0.4051" stop-color="#727AE2"/>
<stop offset="0.6924" stop-color="#9297EE"/>
<stop offset="1" stop-color="#BCBEFF"/>
</linearGradient>
<linearGradient id="paint9_linear_15_907" x1="653.646" y1="708.645" x2="850.69" y2="708.645" gradientUnits="userSpaceOnUse">
<stop stop-color="#42E8E0"/>
<stop offset="0.1507" stop-color="#43E3E0"/>
<stop offset="0.3285" stop-color="#45D5DF"/>
<stop offset="0.5199" stop-color="#49BDDD"/>
<stop offset="0.7209" stop-color="#4E9CDB"/>
<stop offset="0.9274" stop-color="#5472D8"/>
<stop offset="1" stop-color="#5761D7"/>
</linearGradient>
<linearGradient id="paint10_linear_15_907" x1="752.166" y1="677.52" x2="850.69" y2="677.52" gradientUnits="userSpaceOnUse">
<stop stop-color="#42E8E0"/>
<stop offset="0.1507" stop-color="#43E3E0"/>
<stop offset="0.3285" stop-color="#45D5DF"/>
<stop offset="0.5199" stop-color="#49BDDD"/>
<stop offset="0.7209" stop-color="#4E9CDB"/>
<stop offset="0.9274" stop-color="#5472D8"/>
<stop offset="1" stop-color="#5761D7"/>
</linearGradient>
<linearGradient id="paint11_linear_15_907" x1="653.646" y1="677.519" x2="752.169" y2="677.519" gradientUnits="userSpaceOnUse">
<stop stop-color="#42E8E0"/>
<stop offset="0.1507" stop-color="#43E3E0"/>
<stop offset="0.3285" stop-color="#45D5DF"/>
<stop offset="0.5199" stop-color="#49BDDD"/>
<stop offset="0.7209" stop-color="#4E9CDB"/>
<stop offset="0.9274" stop-color="#5472D8"/>
<stop offset="1" stop-color="#5761D7"/>
</linearGradient>
<linearGradient id="paint12_linear_15_907" x1="653.646" y1="696.109" x2="850.69" y2="696.109" gradientUnits="userSpaceOnUse">
<stop stop-color="#42E8E0"/>
<stop offset="0.1507" stop-color="#43E3E0"/>
<stop offset="0.3285" stop-color="#45D5DF"/>
<stop offset="0.5199" stop-color="#49BDDD"/>
<stop offset="0.7209" stop-color="#4E9CDB"/>
<stop offset="0.9274" stop-color="#5472D8"/>
<stop offset="1" stop-color="#5761D7"/>
</linearGradient>
<linearGradient id="paint13_linear_15_907" x1="752.169" y1="727.234" x2="850.69" y2="727.234" gradientUnits="userSpaceOnUse">
<stop stop-color="#42E8E0"/>
<stop offset="0.1507" stop-color="#43E3E0"/>
<stop offset="0.3285" stop-color="#45D5DF"/>
<stop offset="0.5199" stop-color="#49BDDD"/>
<stop offset="0.7209" stop-color="#4E9CDB"/>
<stop offset="0.9274" stop-color="#5472D8"/>
<stop offset="1" stop-color="#5761D7"/>
</linearGradient>
<linearGradient id="paint14_linear_15_907" x1="653.646" y1="727.234" x2="752.169" y2="727.234" gradientUnits="userSpaceOnUse">
<stop stop-color="#42E8E0"/>
<stop offset="0.1507" stop-color="#43E3E0"/>
<stop offset="0.3285" stop-color="#45D5DF"/>
<stop offset="0.5199" stop-color="#49BDDD"/>
<stop offset="0.7209" stop-color="#4E9CDB"/>
<stop offset="0.9274" stop-color="#5472D8"/>
<stop offset="1" stop-color="#5761D7"/>
</linearGradient>
<linearGradient id="paint15_linear_15_907" x1="1074.18" y1="747.417" x2="1402.46" y2="747.417" gradientUnits="userSpaceOnUse">
<stop stop-color="#5761D7"/>
<stop offset="0.1645" stop-color="#5E67DA"/>
<stop offset="0.4051" stop-color="#727AE2"/>
<stop offset="0.6924" stop-color="#9297EE"/>
<stop offset="1" stop-color="#BCBEFF"/>
</linearGradient>
<linearGradient id="paint16_linear_15_907" x1="1167.08" y1="708.645" x2="1364.13" y2="708.645" gradientUnits="userSpaceOnUse">
<stop stop-color="#42E8E0"/>
<stop offset="0.1507" stop-color="#43E3E0"/>
<stop offset="0.3285" stop-color="#45D5DF"/>
<stop offset="0.5199" stop-color="#49BDDD"/>
<stop offset="0.7209" stop-color="#4E9CDB"/>
<stop offset="0.9274" stop-color="#5472D8"/>
<stop offset="1" stop-color="#5761D7"/>
</linearGradient>
<linearGradient id="paint17_linear_15_907" x1="1265.6" y1="677.52" x2="1364.13" y2="677.52" gradientUnits="userSpaceOnUse">
<stop stop-color="#42E8E0"/>
<stop offset="0.1507" stop-color="#43E3E0"/>
<stop offset="0.3285" stop-color="#45D5DF"/>
<stop offset="0.5199" stop-color="#49BDDD"/>
<stop offset="0.7209" stop-color="#4E9CDB"/>
<stop offset="0.9274" stop-color="#5472D8"/>
<stop offset="1" stop-color="#5761D7"/>
</linearGradient>
<linearGradient id="paint18_linear_15_907" x1="1167.08" y1="677.519" x2="1265.61" y2="677.519" gradientUnits="userSpaceOnUse">
<stop stop-color="#42E8E0"/>
<stop offset="0.1507" stop-color="#43E3E0"/>
<stop offset="0.3285" stop-color="#45D5DF"/>
<stop offset="0.5199" stop-color="#49BDDD"/>
<stop offset="0.7209" stop-color="#4E9CDB"/>
<stop offset="0.9274" stop-color="#5472D8"/>
<stop offset="1" stop-color="#5761D7"/>
</linearGradient>
<linearGradient id="paint19_linear_15_907" x1="1167.08" y1="696.109" x2="1364.13" y2="696.109" gradientUnits="userSpaceOnUse">
<stop stop-color="#42E8E0"/>
<stop offset="0.1507" stop-color="#43E3E0"/>
<stop offset="0.3285" stop-color="#45D5DF"/>
<stop offset="0.5199" stop-color="#49BDDD"/>
<stop offset="0.7209" stop-color="#4E9CDB"/>
<stop offset="0.9274" stop-color="#5472D8"/>
<stop offset="1" stop-color="#5761D7"/>
</linearGradient>
<linearGradient id="paint20_linear_15_907" x1="1265.61" y1="727.234" x2="1364.13" y2="727.234" gradientUnits="userSpaceOnUse">
<stop stop-color="#42E8E0"/>
<stop offset="0.1507" stop-color="#43E3E0"/>
<stop offset="0.3285" stop-color="#45D5DF"/>
<stop offset="0.5199" stop-color="#49BDDD"/>
<stop offset="0.7209" stop-color="#4E9CDB"/>
<stop offset="0.9274" stop-color="#5472D8"/>
<stop offset="1" stop-color="#5761D7"/>
</linearGradient>
<linearGradient id="paint21_linear_15_907" x1="1167.08" y1="727.234" x2="1265.61" y2="727.234" gradientUnits="userSpaceOnUse">
<stop stop-color="#42E8E0"/>
<stop offset="0.1507" stop-color="#43E3E0"/>
<stop offset="0.3285" stop-color="#45D5DF"/>
<stop offset="0.5199" stop-color="#49BDDD"/>
<stop offset="0.7209" stop-color="#4E9CDB"/>
<stop offset="0.9274" stop-color="#5472D8"/>
<stop offset="1" stop-color="#5761D7"/>
</linearGradient>
<linearGradient id="paint22_linear_15_907" x1="1123.02" y1="878.718" x2="1123.02" y2="458.836" gradientUnits="userSpaceOnUse">
<stop stop-color="#C0BFF6"/>
<stop offset="0.2938" stop-color="#C5C4F7"/>
<stop offset="0.6399" stop-color="#D3D2F9"/>
<stop offset="1" stop-color="#E9E9FD"/>
</linearGradient>
<linearGradient id="paint23_linear_15_907" x1="1123.02" y1="501.008" x2="1123.02" y2="365.041" gradientUnits="userSpaceOnUse">
<stop stop-color="#C0BFF6"/>
<stop offset="0.2938" stop-color="#C5C4F7"/>
<stop offset="0.6399" stop-color="#D3D2F9"/>
<stop offset="1" stop-color="#E9E9FD"/>
</linearGradient>
<linearGradient id="paint24_linear_15_907" x1="186.471" y1="675.479" x2="440.814" y2="675.479" gradientUnits="userSpaceOnUse">
<stop stop-color="#C0BFF6"/>
<stop offset="0.2938" stop-color="#C5C4F7"/>
<stop offset="0.6399" stop-color="#D3D2F9"/>
<stop offset="1" stop-color="#E9E9FD"/>
</linearGradient>
<linearGradient id="paint25_linear_15_907" x1="186.472" y1="732.487" x2="230.146" y2="732.487" gradientUnits="userSpaceOnUse">
<stop stop-color="#5761D7"/>
<stop offset="0.1779" stop-color="#5C66D9"/>
<stop offset="0.3876" stop-color="#6A73DF"/>
<stop offset="0.6134" stop-color="#8289E8"/>
<stop offset="0.849" stop-color="#A3A7F5"/>
<stop offset="1" stop-color="#BCBEFF"/>
</linearGradient>
<linearGradient id="paint26_linear_15_907" x1="220.547" y1="796.572" x2="579.762" y2="796.572" gradientUnits="userSpaceOnUse">
<stop stop-color="#5761D7"/>
<stop offset="0.1779" stop-color="#5C66D9"/>
<stop offset="0.3876" stop-color="#6A73DF"/>
<stop offset="0.6134" stop-color="#8289E8"/>
<stop offset="0.849" stop-color="#A3A7F5"/>
<stop offset="1" stop-color="#BCBEFF"/>
</linearGradient>
<linearGradient id="paint27_linear_15_907" x1="341.244" y1="786.104" x2="700.651" y2="786.104" gradientUnits="userSpaceOnUse">
<stop stop-color="#C0BFF6"/>
<stop offset="0.2938" stop-color="#C5C4F7"/>
<stop offset="0.6399" stop-color="#D3D2F9"/>
<stop offset="1" stop-color="#E9E9FD"/>
</linearGradient>
<linearGradient id="paint28_linear_15_907" x1="402.109" y1="803.936" x2="494.108" y2="803.936" gradientUnits="userSpaceOnUse">
<stop stop-color="#C0BFF6"/>
<stop offset="0.2938" stop-color="#C5C4F7"/>
<stop offset="0.6399" stop-color="#D3D2F9"/>
<stop offset="1" stop-color="#E9E9FD"/>
</linearGradient>
<linearGradient id="paint29_linear_15_907" x1="203.931" y1="716.48" x2="563.338" y2="716.48" gradientUnits="userSpaceOnUse">
<stop stop-color="#C0BFF6"/>
<stop offset="0.2938" stop-color="#C5C4F7"/>
<stop offset="0.6399" stop-color="#D3D2F9"/>
<stop offset="1" stop-color="#E9E9FD"/>
</linearGradient>
<linearGradient id="paint30_linear_15_907" x1="180.276" y1="693.421" x2="272.274" y2="693.421" gradientUnits="userSpaceOnUse">
<stop stop-color="#C0BFF6"/>
<stop offset="0.2938" stop-color="#C5C4F7"/>
<stop offset="0.6399" stop-color="#D3D2F9"/>
<stop offset="1" stop-color="#E9E9FD"/>
</linearGradient>
<linearGradient id="paint31_linear_15_907" x1="1821.16" y1="675.479" x2="1566.82" y2="675.479" gradientUnits="userSpaceOnUse">
<stop stop-color="#C0BFF6"/>
<stop offset="0.2938" stop-color="#C5C4F7"/>
<stop offset="0.6399" stop-color="#D3D2F9"/>
<stop offset="1" stop-color="#E9E9FD"/>
</linearGradient>
<linearGradient id="paint32_linear_15_907" x1="1821.16" y1="732.487" x2="1777.49" y2="732.487" gradientUnits="userSpaceOnUse">
<stop stop-color="#5761D7"/>
<stop offset="0.1779" stop-color="#5C66D9"/>
<stop offset="0.3876" stop-color="#6A73DF"/>
<stop offset="0.6134" stop-color="#8289E8"/>
<stop offset="0.849" stop-color="#A3A7F5"/>
<stop offset="1" stop-color="#BCBEFF"/>
</linearGradient>
<linearGradient id="paint33_linear_15_907" x1="1787.09" y1="796.572" x2="1427.87" y2="796.572" gradientUnits="userSpaceOnUse">
<stop stop-color="#5761D7"/>
<stop offset="0.1779" stop-color="#5C66D9"/>
<stop offset="0.3876" stop-color="#6A73DF"/>
<stop offset="0.6134" stop-color="#8289E8"/>
<stop offset="0.849" stop-color="#A3A7F5"/>
<stop offset="1" stop-color="#BCBEFF"/>
</linearGradient>
<linearGradient id="paint34_linear_15_907" x1="1666.39" y1="786.104" x2="1306.98" y2="786.104" gradientUnits="userSpaceOnUse">
<stop stop-color="#C0BFF6"/>
<stop offset="0.2938" stop-color="#C5C4F7"/>
<stop offset="0.6399" stop-color="#D3D2F9"/>
<stop offset="1" stop-color="#E9E9FD"/>
</linearGradient>
<linearGradient id="paint35_linear_15_907" x1="1605.52" y1="803.936" x2="1513.53" y2="803.936" gradientUnits="userSpaceOnUse">
<stop stop-color="#C0BFF6"/>
<stop offset="0.2938" stop-color="#C5C4F7"/>
<stop offset="0.6399" stop-color="#D3D2F9"/>
<stop offset="1" stop-color="#E9E9FD"/>
</linearGradient>
<linearGradient id="paint36_linear_15_907" x1="1803.7" y1="716.48" x2="1444.3" y2="716.48" gradientUnits="userSpaceOnUse">
<stop stop-color="#C0BFF6"/>
<stop offset="0.2938" stop-color="#C5C4F7"/>
<stop offset="0.6399" stop-color="#D3D2F9"/>
<stop offset="1" stop-color="#E9E9FD"/>
</linearGradient>
<linearGradient id="paint37_linear_15_907" x1="1827.36" y1="693.421" x2="1735.36" y2="693.421" gradientUnits="userSpaceOnUse">
<stop stop-color="#C0BFF6"/>
<stop offset="0.2938" stop-color="#C5C4F7"/>
<stop offset="0.6399" stop-color="#D3D2F9"/>
<stop offset="1" stop-color="#E9E9FD"/>
</linearGradient>
<radialGradient id="paint38_radial_15_907" cx="0" cy="0" r="1" gradientTransform="matrix(26.9787 -13.7849 -15.7722 -23.5794 594.439 964.668)" gradientUnits="userSpaceOnUse">
<stop stop-color="#42E8E0"/>
<stop offset="0.0042" stop-color="#41E5DE"/>
<stop offset="0.064" stop-color="#39B8C3"/>
<stop offset="0.128" stop-color="#3190AA"/>
<stop offset="0.198" stop-color="#2A6C95"/>
<stop offset="0.2736" stop-color="#254E83"/>
<stop offset="0.3567" stop-color="#203674"/>
<stop offset="0.4505" stop-color="#1C2469"/>
<stop offset="0.561" stop-color="#1A1761"/>
<stop offset="0.7043" stop-color="#180F5C"/>
<stop offset="1" stop-color="#180D5B"/>
</radialGradient>
<radialGradient id="paint39_radial_15_907" cx="0" cy="0" r="1" gradientTransform="matrix(7.33546 -3.74809 -4.28844 -6.41119 594.439 964.668)" gradientUnits="userSpaceOnUse">
<stop stop-color="#42E8E0"/>
<stop offset="1" stop-color="#42E8E0"/>
</radialGradient>
<radialGradient id="paint40_radial_15_907" cx="0" cy="0" r="1" gradientTransform="matrix(26.9787 -13.7849 -15.7722 -23.5794 816.319 983.605)" gradientUnits="userSpaceOnUse">
<stop stop-color="#42E8E0"/>
<stop offset="0.0042" stop-color="#41E5DE"/>
<stop offset="0.064" stop-color="#39B8C3"/>
<stop offset="0.128" stop-color="#3190AA"/>
<stop offset="0.198" stop-color="#2A6C95"/>
<stop offset="0.2736" stop-color="#254E83"/>
<stop offset="0.3567" stop-color="#203674"/>
<stop offset="0.4505" stop-color="#1C2469"/>
<stop offset="0.561" stop-color="#1A1761"/>
<stop offset="0.7043" stop-color="#180F5C"/>
<stop offset="1" stop-color="#180D5B"/>
</radialGradient>
<radialGradient id="paint41_radial_15_907" cx="0" cy="0" r="1" gradientTransform="matrix(7.33545 -3.74809 -4.28843 -6.41119 816.319 983.605)" gradientUnits="userSpaceOnUse">
<stop stop-color="#42E8E0"/>
<stop offset="1" stop-color="#42E8E0"/>
</radialGradient>
<radialGradient id="paint42_radial_15_907" cx="0" cy="0" r="1" gradientTransform="matrix(26.9787 -13.7849 -15.7722 -23.5794 1196.94 981.42)" gradientUnits="userSpaceOnUse">
<stop stop-color="#42E8E0"/>
<stop offset="0.0042" stop-color="#41E5DE"/>
<stop offset="0.064" stop-color="#39B8C3"/>
<stop offset="0.128" stop-color="#3190AA"/>
<stop offset="0.198" stop-color="#2A6C95"/>
<stop offset="0.2736" stop-color="#254E83"/>
<stop offset="0.3567" stop-color="#203674"/>
<stop offset="0.4505" stop-color="#1C2469"/>
<stop offset="0.561" stop-color="#1A1761"/>
<stop offset="0.7043" stop-color="#180F5C"/>
<stop offset="1" stop-color="#180D5B"/>
</radialGradient>
<radialGradient id="paint43_radial_15_907" cx="0" cy="0" r="1" gradientTransform="matrix(7.33546 -3.74809 -4.28844 -6.41119 1196.94 981.42)" gradientUnits="userSpaceOnUse">
<stop stop-color="#42E8E0"/>
<stop offset="1" stop-color="#42E8E0"/>
</radialGradient>
<radialGradient id="paint44_radial_15_907" cx="0" cy="0" r="1" gradientTransform="matrix(26.9787 -13.7849 -15.7722 -23.5794 1237.84 1002.36)" gradientUnits="userSpaceOnUse">
<stop stop-color="#42E8E0"/>
<stop offset="0.0042" stop-color="#41E5DE"/>
<stop offset="0.064" stop-color="#39B8C3"/>
<stop offset="0.128" stop-color="#3190AA"/>
<stop offset="0.198" stop-color="#2A6C95"/>
<stop offset="0.2736" stop-color="#254E83"/>
<stop offset="0.3567" stop-color="#203674"/>
<stop offset="0.4505" stop-color="#1C2469"/>
<stop offset="0.561" stop-color="#1A1761"/>
<stop offset="0.7043" stop-color="#180F5C"/>
<stop offset="1" stop-color="#180D5B"/>
</radialGradient>
<radialGradient id="paint45_radial_15_907" cx="0" cy="0" r="1" gradientTransform="matrix(7.33549 -3.74809 -4.28846 -6.41118 1237.84 1002.36)" gradientUnits="userSpaceOnUse">
<stop stop-color="#42E8E0"/>
<stop offset="1" stop-color="#42E8E0"/>
</radialGradient>
<radialGradient id="paint46_radial_15_907" cx="0" cy="0" r="1" gradientTransform="matrix(26.9787 -13.7849 -15.7722 -23.5794 1460.89 945.904)" gradientUnits="userSpaceOnUse">
<stop stop-color="#42E8E0"/>
<stop offset="0.0042" stop-color="#41E5DE"/>
<stop offset="0.064" stop-color="#39B8C3"/>
<stop offset="0.128" stop-color="#3190AA"/>
<stop offset="0.198" stop-color="#2A6C95"/>
<stop offset="0.2736" stop-color="#254E83"/>
<stop offset="0.3567" stop-color="#203674"/>
<stop offset="0.4505" stop-color="#1C2469"/>
<stop offset="0.561" stop-color="#1A1761"/>
<stop offset="0.7043" stop-color="#180F5C"/>
<stop offset="1" stop-color="#180D5B"/>
</radialGradient>
<radialGradient id="paint47_radial_15_907" cx="0" cy="0" r="1" gradientTransform="matrix(7.33546 -3.74809 -4.28844 -6.41119 1460.89 945.904)" gradientUnits="userSpaceOnUse">
<stop stop-color="#42E8E0"/>
<stop offset="1" stop-color="#42E8E0"/>
</radialGradient>
<radialGradient id="paint48_radial_15_907" cx="0" cy="0" r="1" gradientTransform="matrix(26.9787 -13.7849 -15.7722 -23.5794 1513.53 878.411)" gradientUnits="userSpaceOnUse">
<stop stop-color="#42E8E0"/>
<stop offset="0.0042" stop-color="#41E5DE"/>
<stop offset="0.064" stop-color="#39B8C3"/>
<stop offset="0.128" stop-color="#3190AA"/>
<stop offset="0.198" stop-color="#2A6C95"/>
<stop offset="0.2736" stop-color="#254E83"/>
<stop offset="0.3567" stop-color="#203674"/>
<stop offset="0.4505" stop-color="#1C2469"/>
<stop offset="0.561" stop-color="#1A1761"/>
<stop offset="0.7043" stop-color="#180F5C"/>
<stop offset="1" stop-color="#180D5B"/>
</radialGradient>
<radialGradient id="paint49_radial_15_907" cx="0" cy="0" r="1" gradientTransform="matrix(7.33546 -3.74809 -4.28844 -6.41119 1513.53 878.411)" gradientUnits="userSpaceOnUse">
<stop stop-color="#42E8E0"/>
<stop offset="1" stop-color="#42E8E0"/>
</radialGradient>
<radialGradient id="paint50_radial_15_907" cx="0" cy="0" r="1" gradientTransform="matrix(26.9787 -13.7849 -15.7722 -23.5794 1465.4 853.6)" gradientUnits="userSpaceOnUse">
<stop stop-color="#42E8E0"/>
<stop offset="0.0042" stop-color="#41E5DE"/>
<stop offset="0.064" stop-color="#39B8C3"/>
<stop offset="0.128" stop-color="#3190AA"/>
<stop offset="0.198" stop-color="#2A6C95"/>
<stop offset="0.2736" stop-color="#254E83"/>
<stop offset="0.3567" stop-color="#203674"/>
<stop offset="0.4505" stop-color="#1C2469"/>
<stop offset="0.561" stop-color="#1A1761"/>
<stop offset="0.7043" stop-color="#180F5C"/>
<stop offset="1" stop-color="#180D5B"/>
</radialGradient>
<radialGradient id="paint51_radial_15_907" cx="0" cy="0" r="1" gradientTransform="matrix(7.33546 -3.74809 -4.28844 -6.41119 1465.4 853.6)" gradientUnits="userSpaceOnUse">
<stop stop-color="#42E8E0"/>
<stop offset="1" stop-color="#42E8E0"/>
</radialGradient>
<radialGradient id="paint52_radial_15_907" cx="0" cy="0" r="1" gradientTransform="matrix(26.9787 -13.7849 -15.7722 -23.5794 1417.28 830.518)" gradientUnits="userSpaceOnUse">
<stop stop-color="#42E8E0"/>
<stop offset="0.0042" stop-color="#41E5DE"/>
<stop offset="0.064" stop-color="#39B8C3"/>
<stop offset="0.128" stop-color="#3190AA"/>
<stop offset="0.198" stop-color="#2A6C95"/>
<stop offset="0.2736" stop-color="#254E83"/>
<stop offset="0.3567" stop-color="#203674"/>
<stop offset="0.4505" stop-color="#1C2469"/>
<stop offset="0.561" stop-color="#1A1761"/>
<stop offset="0.7043" stop-color="#180F5C"/>
<stop offset="1" stop-color="#180D5B"/>
</radialGradient>
<radialGradient id="paint53_radial_15_907" cx="0" cy="0" r="1" gradientTransform="matrix(7.33546 -3.74809 -4.28844 -6.41119 1417.28 830.518)" gradientUnits="userSpaceOnUse">
<stop stop-color="#42E8E0"/>
<stop offset="1" stop-color="#42E8E0"/>
</radialGradient>
<radialGradient id="paint54_radial_15_907" cx="0" cy="0" r="1" gradientTransform="matrix(26.9787 -13.7849 -15.7722 -23.5794 555.556 944.889)" gradientUnits="userSpaceOnUse">
<stop stop-color="#42E8E0"/>
<stop offset="0.0042" stop-color="#41E5DE"/>
<stop offset="0.064" stop-color="#39B8C3"/>
<stop offset="0.128" stop-color="#3190AA"/>
<stop offset="0.198" stop-color="#2A6C95"/>
<stop offset="0.2736" stop-color="#254E83"/>
<stop offset="0.3567" stop-color="#203674"/>
<stop offset="0.4505" stop-color="#1C2469"/>
<stop offset="0.561" stop-color="#1A1761"/>
<stop offset="0.7043" stop-color="#180F5C"/>
<stop offset="1" stop-color="#180D5B"/>
</radialGradient>
<radialGradient id="paint55_radial_15_907" cx="0" cy="0" r="1" gradientTransform="matrix(7.33547 -3.74811 -4.28844 -6.41122 555.556 944.889)" gradientUnits="userSpaceOnUse">
<stop stop-color="#42E8E0"/>
<stop offset="1" stop-color="#42E8E0"/>
</radialGradient>
<radialGradient id="paint56_radial_15_907" cx="0" cy="0" r="1" gradientTransform="matrix(26.9787 -13.7849 -15.7722 -23.5794 516.672 925.109)" gradientUnits="userSpaceOnUse">
<stop stop-color="#42E8E0"/>
<stop offset="0.0042" stop-color="#41E5DE"/>
<stop offset="0.064" stop-color="#39B8C3"/>
<stop offset="0.128" stop-color="#3190AA"/>
<stop offset="0.198" stop-color="#2A6C95"/>
<stop offset="0.2736" stop-color="#254E83"/>
<stop offset="0.3567" stop-color="#203674"/>
<stop offset="0.4505" stop-color="#1C2469"/>
<stop offset="0.561" stop-color="#1A1761"/>
<stop offset="0.7043" stop-color="#180F5C"/>
<stop offset="1" stop-color="#180D5B"/>
</radialGradient>
<radialGradient id="paint57_radial_15_907" cx="0" cy="0" r="1" gradientTransform="matrix(7.33517 -3.74795 -4.28827 -6.41094 516.672 925.109)" gradientUnits="userSpaceOnUse">
<stop stop-color="#42E8E0"/>
<stop offset="1" stop-color="#42E8E0"/>
</radialGradient>
<radialGradient id="paint58_radial_15_907" cx="0" cy="0" r="1" gradientTransform="matrix(26.9787 -13.7849 -15.7722 -23.5794 611.134 823.139)" gradientUnits="userSpaceOnUse">
<stop stop-color="#42E8E0"/>
<stop offset="0.0042" stop-color="#41E5DE"/>
<stop offset="0.064" stop-color="#39B8C3"/>
<stop offset="0.128" stop-color="#3190AA"/>
<stop offset="0.198" stop-color="#2A6C95"/>
<stop offset="0.2736" stop-color="#254E83"/>
<stop offset="0.3567" stop-color="#203674"/>
<stop offset="0.4505" stop-color="#1C2469"/>
<stop offset="0.561" stop-color="#1A1761"/>
<stop offset="0.7043" stop-color="#180F5C"/>
<stop offset="1" stop-color="#180D5B"/>
</radialGradient>
<radialGradient id="paint59_radial_15_907" cx="0" cy="0" r="1" gradientTransform="matrix(7.33546 -3.74809 -4.28844 -6.41119 611.134 823.139)" gradientUnits="userSpaceOnUse">
<stop stop-color="#42E8E0"/>
<stop offset="1" stop-color="#42E8E0"/>
</radialGradient>
<radialGradient id="paint60_radial_15_907" cx="0" cy="0" r="1" gradientTransform="matrix(26.9787 -13.7849 -15.7722 -23.5794 652.675 804.05)" gradientUnits="userSpaceOnUse">
<stop stop-color="#42E8E0"/>
<stop offset="0.0042" stop-color="#41E5DE"/>
<stop offset="0.064" stop-color="#39B8C3"/>
<stop offset="0.128" stop-color="#3190AA"/>
<stop offset="0.198" stop-color="#2A6C95"/>
<stop offset="0.2736" stop-color="#254E83"/>
<stop offset="0.3567" stop-color="#203674"/>
<stop offset="0.4505" stop-color="#1C2469"/>
<stop offset="0.561" stop-color="#1A1761"/>
<stop offset="0.7043" stop-color="#180F5C"/>
<stop offset="1" stop-color="#180D5B"/>
</radialGradient>
<radialGradient id="paint61_radial_15_907" cx="0" cy="0" r="1" gradientTransform="matrix(7.33546 -3.74809 -4.28844 -6.41119 652.675 804.05)" gradientUnits="userSpaceOnUse">
<stop stop-color="#42E8E0"/>
<stop offset="1" stop-color="#42E8E0"/>
</radialGradient>
</defs>
</svg>
